G04*
G04 #@! TF.GenerationSoftware,Altium Limited,Altium Designer,23.0.1 (38)*
G04*
G04 Layer_Color=128*
%FSLAX42Y42*%
%MOMM*%
G71*
G04*
G04 #@! TF.SameCoordinates,5E3E34A1-7FEC-4214-86D8-9FB3ECCAC709*
G04*
G04*
G04 #@! TF.FilePolarity,Positive*
G04*
G01*
G75*
%ADD50C,0.05*%
D50*
X9767Y5955D02*
X9869D01*
X9818Y5904D02*
Y6006D01*
X9513Y5955D02*
X9615D01*
X9564Y5904D02*
Y6006D01*
X9259Y5955D02*
X9361D01*
X9310Y5904D02*
Y6006D01*
X9005Y5955D02*
X9107D01*
X9056Y5904D02*
Y6006D01*
X11545Y14510D02*
X11685D01*
X11615Y14440D02*
Y14580D01*
X11195Y14510D02*
X11335D01*
X11265Y14440D02*
Y14580D01*
X11685Y11260D02*
X11815D01*
X11750Y11195D02*
Y11325D01*
X11685Y10200D02*
X11815D01*
X11750Y10135D02*
Y10265D01*
X11685Y10450D02*
X11815D01*
X11750Y10385D02*
Y10515D01*
X9825Y11510D02*
X9955D01*
X9890Y11445D02*
Y11575D01*
X9825Y10190D02*
X9955D01*
X9890Y10125D02*
Y10255D01*
X9825Y10450D02*
X9955D01*
X9890Y10385D02*
Y10515D01*
X11685Y11510D02*
X11815D01*
X11750Y11445D02*
Y11575D01*
X9825Y11260D02*
X9955D01*
X9890Y11195D02*
Y11325D01*
X11685Y13285D02*
X11815D01*
X11750Y13220D02*
Y13350D01*
X11685Y12225D02*
X11815D01*
X11750Y12160D02*
Y12290D01*
X11685Y12475D02*
X11815D01*
X11750Y12410D02*
Y12540D01*
X9825Y13535D02*
X9955D01*
X9890Y13470D02*
Y13600D01*
X9825Y12215D02*
X9955D01*
X9890Y12150D02*
Y12280D01*
X9825Y12475D02*
X9955D01*
X9890Y12410D02*
Y12540D01*
X11685Y13535D02*
X11815D01*
X11750Y13470D02*
Y13600D01*
X9825Y13285D02*
X9955D01*
X9890Y13220D02*
Y13350D01*
X9432Y14530D02*
X9618D01*
X9525Y14437D02*
Y14623D01*
X9902Y14530D02*
X10088D01*
X9995Y14437D02*
Y14623D01*
X10372Y14530D02*
X10558D01*
X10465Y14437D02*
Y14623D01*
X8290Y12743D02*
X8590D01*
X8440Y12593D02*
Y12893D01*
X3844Y12628D02*
X3994D01*
X3919Y12553D02*
Y12703D01*
X3832Y14749D02*
X3982D01*
X3907Y14674D02*
Y14824D01*
X8912Y14762D02*
X9062D01*
X8987Y14687D02*
Y14837D01*
X8924Y12616D02*
X9074D01*
X8999Y12541D02*
Y12691D01*
X4290Y14635D02*
X4590D01*
X4440Y14485D02*
Y14785D01*
X4919Y7029D02*
X5019D01*
X4969Y6979D02*
Y7079D01*
X4665Y7029D02*
X4765D01*
X4715Y6979D02*
Y7079D01*
X4411Y7029D02*
X4511D01*
X4461Y6979D02*
Y7079D01*
X4157Y7029D02*
X4257D01*
X4207Y6979D02*
Y7079D01*
X3893Y7029D02*
X4013D01*
X3953Y6969D02*
Y7089D01*
X3639Y7029D02*
X3759D01*
X3699Y6969D02*
Y7089D01*
X3395Y7029D02*
X3495D01*
X3445Y6979D02*
Y7079D01*
X3141Y7029D02*
X3241D01*
X3191Y6979D02*
Y7079D01*
X7611Y7029D02*
X7711D01*
X7661Y6979D02*
Y7079D01*
X7357Y7029D02*
X7457D01*
X7407Y6979D02*
Y7079D01*
X7103Y7029D02*
X7203D01*
X7153Y6979D02*
Y7079D01*
X6849Y7029D02*
X6949D01*
X6899Y6979D02*
Y7079D01*
X6595Y7029D02*
X6695D01*
X6645Y6979D02*
Y7079D01*
X6341Y7029D02*
X6441D01*
X6391Y6979D02*
Y7079D01*
X6087Y7029D02*
X6187D01*
X6137Y6979D02*
Y7079D01*
X5833Y7029D02*
X5933D01*
X5883Y6979D02*
Y7079D01*
X5579Y7029D02*
X5679D01*
X5629Y6979D02*
Y7079D01*
X5325Y7029D02*
X5425D01*
X5375Y6979D02*
Y7079D01*
X3141Y11855D02*
X3241D01*
X3191Y11805D02*
Y11905D01*
X3395Y11855D02*
X3495D01*
X3445Y11805D02*
Y11905D01*
X3649Y11855D02*
X3749D01*
X3699Y11805D02*
Y11905D01*
X3903Y11855D02*
X4003D01*
X3953Y11805D02*
Y11905D01*
X4157Y11855D02*
X4257D01*
X4207Y11805D02*
Y11905D01*
X4411Y11855D02*
X4511D01*
X4461Y11805D02*
Y11905D01*
X4919Y11855D02*
X5019D01*
X4969Y11805D02*
Y11905D01*
X5173Y11855D02*
X5273D01*
X5223Y11805D02*
Y11905D01*
X5427Y11855D02*
X5527D01*
X5477Y11805D02*
Y11905D01*
X5681Y11855D02*
X5781D01*
X5731Y11805D02*
Y11905D01*
X5935Y11855D02*
X6035D01*
X5985Y11805D02*
Y11905D01*
X6189Y11855D02*
X6289D01*
X6239Y11805D02*
Y11905D01*
X6443Y11855D02*
X6543D01*
X6493Y11805D02*
Y11905D01*
X6697Y11855D02*
X6797D01*
X6747Y11805D02*
Y11905D01*
X3009Y12923D02*
X3111D01*
X3060Y12872D02*
Y12974D01*
X3009Y12669D02*
X3111D01*
X3060Y12618D02*
Y12720D01*
X3009Y12415D02*
X3111D01*
X3060Y12364D02*
Y12466D01*
X3235Y14650D02*
X3375D01*
X3305Y14580D02*
Y14720D01*
X2885Y14650D02*
X3025D01*
X2955Y14580D02*
Y14720D01*
X12155Y15100D02*
X12455D01*
X12305Y14950D02*
Y15250D01*
X2460Y5345D02*
X2760D01*
X2610Y5195D02*
Y5495D01*
X2405Y15125D02*
X2855D01*
X2630Y14900D02*
Y15350D01*
X3004Y13994D02*
X3106D01*
X3055Y13943D02*
Y14045D01*
X3004Y13740D02*
X3106D01*
X3055Y13689D02*
Y13791D01*
X3004Y13486D02*
X3106D01*
X3055Y13435D02*
Y13537D01*
X8155Y15120D02*
X8455D01*
X8305Y14970D02*
Y15270D01*
X5340Y5900D02*
X5470D01*
X5405Y5835D02*
Y5965D01*
X4840Y5900D02*
X4970D01*
X4905Y5835D02*
Y5965D01*
X5840Y5900D02*
X5970D01*
X5905Y5835D02*
Y5965D01*
X12045Y5410D02*
X12495D01*
X12270Y5185D02*
Y5635D01*
X12155Y11065D02*
X12455D01*
X12305Y10915D02*
Y11215D01*
X8155Y11065D02*
X8455D01*
X8305Y10915D02*
Y11215D01*
X7154Y6163D02*
X7256D01*
X7205Y6112D02*
Y6214D01*
X7154Y5909D02*
X7256D01*
X7205Y5858D02*
Y5960D01*
X7154Y5655D02*
X7256D01*
X7205Y5604D02*
Y5706D01*
X3499Y5657D02*
X3601D01*
X3550Y5606D02*
Y5708D01*
X3245Y5657D02*
X3347D01*
X3296Y5606D02*
Y5708D01*
X3499Y5911D02*
X3601D01*
X3550Y5860D02*
Y5962D01*
X3499Y6165D02*
X3601D01*
X3550Y6114D02*
Y6216D01*
X3245Y5911D02*
X3347D01*
X3296Y5860D02*
Y5962D01*
X3245Y6165D02*
X3347D01*
X3296Y6114D02*
Y6216D01*
X3499Y6419D02*
X3601D01*
X3550Y6368D02*
Y6470D01*
X3245Y6419D02*
X3347D01*
X3296Y6368D02*
Y6470D01*
X9984Y8077D02*
X10114D01*
X10049Y8012D02*
Y8142D01*
X10238Y8077D02*
X10368D01*
X10303Y8012D02*
Y8142D01*
X10492Y8077D02*
X10622D01*
X10557Y8012D02*
Y8142D01*
X10746Y8077D02*
X10876D01*
X10811Y8012D02*
Y8142D01*
X11000Y8077D02*
X11130D01*
X11065Y8012D02*
Y8142D01*
X11254Y8077D02*
X11384D01*
X11319Y8012D02*
Y8142D01*
X11508Y8077D02*
X11638D01*
X11573Y8012D02*
Y8142D01*
X11762Y8077D02*
X11892D01*
X11827Y8012D02*
Y8142D01*
X11400Y9525D02*
X11520D01*
X11460Y9465D02*
Y9585D01*
X11400Y8625D02*
X11520D01*
X11460Y8565D02*
Y8685D01*
X10850Y9545D02*
X10970D01*
X10910Y9485D02*
Y9605D01*
X10850Y8645D02*
X10970D01*
X10910Y8585D02*
Y8705D01*
X10245Y9525D02*
X10365D01*
X10305Y9465D02*
Y9585D01*
X10245Y8625D02*
X10365D01*
X10305Y8565D02*
Y8685D01*
M02*
