G04*
G04 #@! TF.GenerationSoftware,Altium Limited,Altium Designer,23.0.1 (38)*
G04*
G04 Layer_Color=8388736*
%FSLAX42Y42*%
%MOMM*%
G71*
G04*
G04 #@! TF.SameCoordinates,5E3E34A1-7FEC-4214-86D8-9FB3ECCAC709*
G04*
G04*
G04 #@! TF.FilePolarity,Negative*
G04*
G01*
G75*
%ADD18R,2.20X2.20*%
%ADD19C,2.20*%
%ADD20R,3.20X3.20*%
%ADD21C,3.20*%
G04:AMPARAMS|DCode=22|XSize=2.2mm|YSize=2.2mm|CornerRadius=0mm|HoleSize=0mm|Usage=FLASHONLY|Rotation=0.000|XOffset=0mm|YOffset=0mm|HoleType=Round|Shape=Octagon|*
%AMOCTAGOND22*
4,1,8,1.10,-0.55,1.10,0.55,0.55,1.10,-0.55,1.10,-1.10,0.55,-1.10,-0.55,-0.55,-1.10,0.55,-1.10,1.10,-0.55,0.0*
%
%ADD22OCTAGOND22*%

%ADD23R,2.20X2.20*%
%ADD24C,3.00*%
%ADD25R,3.00X3.00*%
%ADD26C,0.20*%
%ADD27R,2.70X2.70*%
%ADD28C,2.40*%
%ADD29C,2.20*%
%ADD30R,2.40X2.40*%
%ADD31C,1.73*%
G04:AMPARAMS|DCode=32|XSize=2.2mm|YSize=2.2mm|CornerRadius=0mm|HoleSize=0mm|Usage=FLASHONLY|Rotation=270.000|XOffset=0mm|YOffset=0mm|HoleType=Round|Shape=Octagon|*
%AMOCTAGOND32*
4,1,8,-0.55,-1.10,0.55,-1.10,1.10,-0.55,1.10,0.55,0.55,1.10,-0.55,1.10,-1.10,0.55,-1.10,-0.55,-0.55,-1.10,0.0*
%
%ADD32OCTAGOND32*%

D18*
X9818Y5955D02*
D03*
D19*
X9564D02*
D03*
X9310D02*
D03*
X9056D02*
D03*
D20*
X11615Y14510D02*
D03*
X3305Y14650D02*
D03*
D21*
X11265Y14510D02*
D03*
X2955Y14650D02*
D03*
X5405Y5900D02*
D03*
X4905D02*
D03*
X5905D02*
D03*
D22*
X11750Y11260D02*
D03*
X9890Y11510D02*
D03*
X11750D02*
D03*
X9890Y11260D02*
D03*
X11750Y13285D02*
D03*
X9890Y13535D02*
D03*
X11750D02*
D03*
X9890Y13285D02*
D03*
D23*
X11750Y10200D02*
D03*
Y10450D02*
D03*
X9890Y10190D02*
D03*
X9890Y10450D02*
D03*
X11750Y12225D02*
D03*
Y12475D02*
D03*
X9890Y12215D02*
D03*
X9890Y12475D02*
D03*
D24*
X9525Y14530D02*
D03*
X9995D02*
D03*
D25*
X10465D02*
D03*
D26*
X8440Y12743D02*
D03*
X4440Y14635D02*
D03*
D27*
X3919Y12628D02*
D03*
X3907Y14749D02*
D03*
X8987Y14762D02*
D03*
X8999Y12616D02*
D03*
D28*
X4969Y7029D02*
D03*
X4461D02*
D03*
X4207D02*
D03*
X3953D02*
D03*
X3699D02*
D03*
X3445D02*
D03*
X3191D02*
D03*
X7661D02*
D03*
X7407D02*
D03*
X7153D02*
D03*
X6899D02*
D03*
X6645D02*
D03*
X6391D02*
D03*
X6137D02*
D03*
X5883D02*
D03*
X5629D02*
D03*
X5375D02*
D03*
X3191Y11855D02*
D03*
X3445D02*
D03*
X3699D02*
D03*
X3953D02*
D03*
X4207D02*
D03*
X4461D02*
D03*
X4969D02*
D03*
X5223D02*
D03*
X5477D02*
D03*
X5731D02*
D03*
X5985D02*
D03*
X6239D02*
D03*
X6493D02*
D03*
X6747D02*
D03*
X3060Y12669D02*
D03*
Y12415D02*
D03*
X3055Y13740D02*
D03*
Y13486D02*
D03*
X7205Y6163D02*
D03*
Y5909D02*
D03*
X3550Y5657D02*
D03*
X3296D02*
D03*
X3550Y5911D02*
D03*
Y6165D02*
D03*
X3296Y5911D02*
D03*
Y6165D02*
D03*
X3550Y6419D02*
D03*
X11460Y8625D02*
D03*
X10910Y8645D02*
D03*
X10305Y8625D02*
D03*
D29*
X4715Y7029D02*
D03*
D30*
X3060Y12923D02*
D03*
X3055Y13994D02*
D03*
X7205Y5655D02*
D03*
X3296Y6419D02*
D03*
X11460Y9525D02*
D03*
X10910Y9545D02*
D03*
X10305Y9525D02*
D03*
D31*
X12305Y15100D02*
D03*
X2610Y5345D02*
D03*
X2630Y15125D02*
D03*
X8305Y15120D02*
D03*
X12270Y5410D02*
D03*
X12305Y11065D02*
D03*
X8305D02*
D03*
D32*
X10049Y8077D02*
D03*
X10303D02*
D03*
X10557D02*
D03*
X10811D02*
D03*
X11065D02*
D03*
X11319D02*
D03*
X11573D02*
D03*
X11827D02*
D03*
M02*
