G04*
G04 #@! TF.GenerationSoftware,Altium Limited,Altium Designer,23.0.1 (38)*
G04*
G04 Layer_Color=32768*
%FSLAX42Y42*%
%MOMM*%
G71*
G04*
G04 #@! TF.SameCoordinates,5E3E34A1-7FEC-4214-86D8-9FB3ECCAC709*
G04*
G04*
G04 #@! TF.FilePolarity,Positive*
G04*
G01*
G75*
%ADD47C,0.10*%
D47*
X11090Y14110D02*
X11790D01*
X11090Y14850D02*
X11790D01*
X11090Y14110D02*
Y14850D01*
X11830Y14735D02*
Y14799D01*
X11790Y14792D02*
X11830Y14799D01*
X11790Y14742D02*
X11830Y14735D01*
X11790Y14792D02*
Y14850D01*
Y14218D02*
X11830Y14226D01*
X11790Y14168D02*
X11830Y14160D01*
Y14226D01*
X11790Y14110D02*
Y14168D01*
Y14218D02*
Y14742D01*
X2780Y14250D02*
X3480D01*
X2780Y14990D02*
X3480D01*
X2780Y14250D02*
Y14990D01*
X3520Y14874D02*
Y14940D01*
X3480Y14932D02*
X3520Y14940D01*
X3480Y14882D02*
X3520Y14874D01*
X3480Y14932D02*
Y14990D01*
Y14358D02*
X3520Y14365D01*
X3480Y14308D02*
X3520Y14301D01*
Y14365D01*
X3480Y14250D02*
Y14308D01*
Y14358D02*
Y14882D01*
X4595Y5810D02*
X4655Y5785D01*
X4595Y5690D02*
X4655Y5715D01*
X4595Y5690D02*
Y5810D01*
X4655Y5785D02*
Y6400D01*
Y5500D02*
Y5715D01*
Y5500D02*
X6155D01*
X4655Y6400D02*
X6155D01*
Y5500D02*
Y6235D01*
Y6305D02*
Y6400D01*
Y6305D02*
X6215Y6330D01*
Y6210D02*
Y6330D01*
X6155Y6235D02*
X6215Y6210D01*
M02*
