M48
;Layer_Color=9474304
;FILE_FORMAT=4:2
METRIC,LZ
;TYPE=PLATED
T1F00S00C1.00
T2F00S00C1.02
T3F00S00C1.20
T4F00S00C1.30
T5F00S00C1.40
T6F00S00C1.50
T7F00S00C1.85
T8F00S00C3.00
T9F00S00C4.50
%
T01
X004207Y007029
X004461
X004715
X004969
X005375
X005629
X005883
X006137
X006391
X006645
X006899
X007153
X007407
X007661
X003445
X003191
Y011855
X003445
X003699
X003953
X004207
X004461
X004969
X005223
X005477
X005731
X005985
X006239
X006493
X006747
T02
X009056Y005955
X00931
X009564
X009818
X007205Y005909
Y006163
Y005655
X00355Y005657
X003296
Y005911
X00355
Y006165
X003296
Y006419
X00355
X00306Y012415
Y012669
Y012923
X003055Y013486
Y01374
Y013994
T03
X003699Y007029
X003953
X010305Y008625
X01091Y008645
X01146Y008625
Y009525
X01091Y009545
X010305Y009525
T04
X004905Y0059
X005405
X005905
X010049Y008077
X010303
X010557
X010811
X011065
X011319
X011573
X011827
X01175Y0102
Y01045
Y01126
Y01151
X00989
Y01126
Y01045
X00989Y01019
Y012215
X00989Y012475
Y013285
Y013535
X01175
Y013285
Y012475
Y012225
T05
X011265Y01451
X011615
X003305Y01465
X002955
T06
X008999Y012616
X008987Y014762
X003907Y014749
X003919Y012628
T07
X009525Y01453
X009995
X010465
T08
X00261Y005345
X008305Y011065
X012305
Y0151
X008305Y01512
X00844Y012743
X00444Y014635
T09
X01227Y00541
X00263Y015125
M30
