G04*
G04 #@! TF.GenerationSoftware,Altium Limited,Altium Designer,23.0.1 (38)*
G04*
G04 Layer_Color=16711935*
%FSLAX42Y42*%
%MOMM*%
G71*
G04*
G04 #@! TF.SameCoordinates,5E3E34A1-7FEC-4214-86D8-9FB3ECCAC709*
G04*
G04*
G04 #@! TF.FilePolarity,Positive*
G04*
G01*
G75*
%ADD12C,0.20*%
%ADD47C,0.10*%
D12*
X8910Y5822D02*
X9964D01*
X8910D02*
Y6088D01*
X9964D01*
Y5822D02*
Y6088D01*
X9347Y14886D02*
X10643D01*
X9347Y14174D02*
Y14886D01*
Y14174D02*
X10643D01*
Y14886D01*
D47*
X11790Y14218D02*
Y14742D01*
Y14110D02*
Y14168D01*
X11830Y14160D02*
Y14226D01*
X11790Y14168D02*
X11830Y14160D01*
X11790Y14218D02*
X11830Y14226D01*
X11790Y14792D02*
Y14850D01*
Y14742D02*
X11830Y14735D01*
X11790Y14792D02*
X11830Y14799D01*
Y14735D02*
Y14799D01*
X11090Y14110D02*
Y14850D01*
X11790D01*
X11090Y14110D02*
X11790D01*
X3187Y12269D02*
Y13069D01*
X2933D02*
X3187D01*
X2933Y12269D02*
Y13069D01*
Y12269D02*
X3187D01*
X3480Y14358D02*
Y14882D01*
Y14250D02*
Y14308D01*
X3520Y14301D02*
Y14365D01*
X3480Y14308D02*
X3520Y14301D01*
X3480Y14358D02*
X3520Y14365D01*
X3480Y14932D02*
Y14990D01*
Y14882D02*
X3520Y14874D01*
X3480Y14932D02*
X3520Y14940D01*
Y14874D02*
Y14940D01*
X2780Y14250D02*
Y14990D01*
X3480D01*
X2780Y14250D02*
X3480D01*
X3182Y13340D02*
Y14140D01*
X2928D02*
X3182D01*
X2928Y13340D02*
Y14140D01*
Y13340D02*
X3182D01*
X6155Y6235D02*
X6215Y6210D01*
Y6330D01*
X6155Y6305D02*
X6215Y6330D01*
X6155Y6305D02*
Y6400D01*
Y5500D02*
Y6235D01*
X4655Y6400D02*
X6155D01*
X4655Y5500D02*
X6155D01*
X4655D02*
Y5715D01*
Y5785D02*
Y6400D01*
X4595Y5690D02*
Y5810D01*
Y5690D02*
X4655Y5715D01*
X4595Y5810D02*
X4655Y5785D01*
X7078Y6309D02*
X7332D01*
Y5509D02*
Y6309D01*
X7078Y5509D02*
X7332D01*
X7078D02*
Y6309D01*
X3169Y5530D02*
X3677D01*
X3169D02*
Y6546D01*
X3677Y5530D02*
Y6546D01*
X3169D02*
X3677D01*
X11340Y9390D02*
X11580D01*
Y8760D02*
Y9390D01*
X11340Y8760D02*
Y9390D01*
Y8760D02*
X11580D01*
X10790Y9410D02*
X11030D01*
Y8780D02*
Y9410D01*
X10790Y8780D02*
Y9410D01*
Y8780D02*
X11030D01*
X10185Y9390D02*
X10425D01*
Y8760D02*
Y9390D01*
X10185Y8760D02*
Y9390D01*
Y8760D02*
X10425D01*
M02*
