G04*
G04 #@! TF.GenerationSoftware,Altium Limited,Altium Designer,23.0.1 (38)*
G04*
G04 Layer_Color=2752767*
%FSLAX42Y42*%
%MOMM*%
G71*
G04*
G04 #@! TF.SameCoordinates,5E3E34A1-7FEC-4214-86D8-9FB3ECCAC709*
G04*
G04*
G04 #@! TF.FilePolarity,Positive*
G04*
G01*
G75*
%ADD49C,0.07*%
%ADD50C,0.05*%
D49*
X9838Y5955D02*
G03*
X9838Y5955I-20J0D01*
G01*
X9584D02*
G03*
X9584Y5955I-20J0D01*
G01*
X9330D02*
G03*
X9330Y5955I-20J0D01*
G01*
X9076D02*
G03*
X9076Y5955I-20J0D01*
G01*
X3080Y12923D02*
G03*
X3080Y12923I-20J0D01*
G01*
Y12669D02*
G03*
X3080Y12669I-20J0D01*
G01*
Y12415D02*
G03*
X3080Y12415I-20J0D01*
G01*
X3075Y13994D02*
G03*
X3075Y13994I-20J0D01*
G01*
Y13740D02*
G03*
X3075Y13740I-20J0D01*
G01*
Y13486D02*
G03*
X3075Y13486I-20J0D01*
G01*
X7225Y6163D02*
G03*
X7225Y6163I-20J0D01*
G01*
Y5909D02*
G03*
X7225Y5909I-20J0D01*
G01*
Y5655D02*
G03*
X7225Y5655I-20J0D01*
G01*
X3570Y5657D02*
G03*
X3570Y5657I-20J0D01*
G01*
X3316D02*
G03*
X3316Y5657I-20J0D01*
G01*
X3570Y5911D02*
G03*
X3570Y5911I-20J0D01*
G01*
Y6165D02*
G03*
X3570Y6165I-20J0D01*
G01*
X3316Y5911D02*
G03*
X3316Y5911I-20J0D01*
G01*
Y6165D02*
G03*
X3316Y6165I-20J0D01*
G01*
X3570Y6419D02*
G03*
X3570Y6419I-20J0D01*
G01*
X3316D02*
G03*
X3316Y6419I-20J0D01*
G01*
D50*
X11595Y14490D02*
Y14530D01*
X11635D01*
Y14490D01*
X11595D01*
X11605Y14500D02*
Y14520D01*
X11625D01*
Y14500D01*
X11605D01*
X11245Y14490D02*
Y14530D01*
X11285D01*
Y14490D01*
X11245D01*
X11255Y14500D02*
Y14520D01*
X11275D01*
Y14500D01*
X11255D01*
X11730Y11240D02*
Y11280D01*
X11770D01*
Y11240D01*
X11730D01*
Y10180D02*
Y10220D01*
X11770D01*
Y10180D01*
X11730D01*
Y10430D02*
Y10470D01*
X11770D01*
Y10430D01*
X11730D01*
X9870Y11490D02*
Y11530D01*
X9910D01*
Y11490D01*
X9870D01*
X9870Y10170D02*
Y10210D01*
X9910D01*
Y10170D01*
X9870D01*
X9870Y10430D02*
Y10470D01*
X9910D01*
Y10430D01*
X9870D01*
X11730Y11490D02*
Y11530D01*
X11770D01*
Y11490D01*
X11730D01*
X9870Y11240D02*
Y11280D01*
X9910D01*
Y11240D01*
X9870D01*
X11730Y13265D02*
Y13305D01*
X11770D01*
Y13265D01*
X11730D01*
Y12205D02*
Y12245D01*
X11770D01*
Y12205D01*
X11730D01*
Y12455D02*
Y12495D01*
X11770D01*
Y12455D01*
X11730D01*
X9870Y13515D02*
Y13555D01*
X9910D01*
Y13515D01*
X9870D01*
X9870Y12195D02*
Y12235D01*
X9910D01*
Y12195D01*
X9870D01*
X9870Y12455D02*
Y12495D01*
X9910D01*
Y12455D01*
X9870D01*
X11730Y13515D02*
Y13555D01*
X11770D01*
Y13515D01*
X11730D01*
X9870Y13265D02*
Y13305D01*
X9910D01*
Y13265D01*
X9870D01*
X9505Y14530D02*
X9525Y14550D01*
X9545Y14530D01*
X9525Y14510D01*
X9505Y14530D01*
X9975D02*
X9995Y14550D01*
X10015Y14530D01*
X9995Y14510D01*
X9975Y14530D01*
X10445D02*
X10465Y14550D01*
X10485Y14530D01*
X10465Y14510D01*
X10445Y14530D01*
X8440Y12722D02*
X8420Y12763D01*
X8461D01*
X8440Y12722D01*
X3919Y12608D02*
X3929Y12618D01*
X3940D01*
X3929Y12628D01*
X3940Y12639D01*
X3929D01*
X3919Y12649D01*
X3909Y12639D01*
X3899D01*
X3909Y12628D01*
X3899Y12618D01*
X3909D01*
X3919Y12608D01*
X3907Y14729D02*
X3917Y14739D01*
X3927D01*
X3917Y14749D01*
X3927Y14759D01*
X3917D01*
X3907Y14770D01*
X3896Y14759D01*
X3886D01*
X3896Y14749D01*
X3886Y14739D01*
X3896D01*
X3907Y14729D01*
X8987Y14742D02*
X8997Y14752D01*
X9007D01*
X8997Y14762D01*
X9007Y14772D01*
X8997D01*
X8987Y14782D01*
X8976Y14772D01*
X8966D01*
X8976Y14762D01*
X8966Y14752D01*
X8976D01*
X8987Y14742D01*
X8999Y12595D02*
X9009Y12606D01*
X9020D01*
X9009Y12616D01*
X9020Y12626D01*
X9009D01*
X8999Y12636D01*
X8989Y12626D01*
X8979D01*
X8989Y12616D01*
X8979Y12606D01*
X8989D01*
X8999Y12595D01*
X4440Y14615D02*
X4420Y14655D01*
X4460D01*
X4440Y14615D01*
X4959Y7019D02*
Y7009D01*
X4979D01*
Y7019D01*
X4989D01*
Y7039D01*
X4979D01*
Y7049D01*
X4959D01*
Y7039D01*
X4949D01*
Y7019D01*
X4959D01*
X4705D02*
Y7009D01*
X4725D01*
Y7019D01*
X4735D01*
Y7039D01*
X4725D01*
Y7049D01*
X4705D01*
Y7039D01*
X4695D01*
Y7019D01*
X4705D01*
X4451D02*
Y7009D01*
X4471D01*
Y7019D01*
X4481D01*
Y7039D01*
X4471D01*
Y7049D01*
X4451D01*
Y7039D01*
X4441D01*
Y7019D01*
X4451D01*
X4197D02*
Y7009D01*
X4217D01*
Y7019D01*
X4227D01*
Y7039D01*
X4217D01*
Y7049D01*
X4197D01*
Y7039D01*
X4187D01*
Y7019D01*
X4197D01*
X3933Y7009D02*
X3943D01*
X3953Y7019D01*
X3963Y7009D01*
X3973D01*
Y7019D01*
X3963Y7029D01*
X3973Y7039D01*
Y7049D01*
X3963D01*
X3953Y7039D01*
X3943Y7049D01*
X3933D01*
Y7039D01*
X3943Y7029D01*
X3933Y7019D01*
Y7009D01*
X3679D02*
X3689D01*
X3699Y7019D01*
X3709Y7009D01*
X3719D01*
Y7019D01*
X3709Y7029D01*
X3719Y7039D01*
Y7049D01*
X3709D01*
X3699Y7039D01*
X3689Y7049D01*
X3679D01*
Y7039D01*
X3689Y7029D01*
X3679Y7019D01*
Y7009D01*
X3435Y7019D02*
Y7009D01*
X3455D01*
Y7019D01*
X3465D01*
Y7039D01*
X3455D01*
Y7049D01*
X3435D01*
Y7039D01*
X3425D01*
Y7019D01*
X3435D01*
X3181D02*
Y7009D01*
X3201D01*
Y7019D01*
X3211D01*
Y7039D01*
X3201D01*
Y7049D01*
X3181D01*
Y7039D01*
X3171D01*
Y7019D01*
X3181D01*
X7651D02*
Y7009D01*
X7672D01*
Y7019D01*
X7682D01*
Y7039D01*
X7672D01*
Y7049D01*
X7651D01*
Y7039D01*
X7641D01*
Y7019D01*
X7651D01*
X7397D02*
Y7009D01*
X7418D01*
Y7019D01*
X7428D01*
Y7039D01*
X7418D01*
Y7049D01*
X7397D01*
Y7039D01*
X7387D01*
Y7019D01*
X7397D01*
X7143D02*
Y7009D01*
X7164D01*
Y7019D01*
X7174D01*
Y7039D01*
X7164D01*
Y7049D01*
X7143D01*
Y7039D01*
X7133D01*
Y7019D01*
X7143D01*
X6889D02*
Y7009D01*
X6910D01*
Y7019D01*
X6920D01*
Y7039D01*
X6910D01*
Y7049D01*
X6889D01*
Y7039D01*
X6879D01*
Y7019D01*
X6889D01*
X6635D02*
Y7009D01*
X6656D01*
Y7019D01*
X6666D01*
Y7039D01*
X6656D01*
Y7049D01*
X6635D01*
Y7039D01*
X6625D01*
Y7019D01*
X6635D01*
X6381D02*
Y7009D01*
X6402D01*
Y7019D01*
X6412D01*
Y7039D01*
X6402D01*
Y7049D01*
X6381D01*
Y7039D01*
X6371D01*
Y7019D01*
X6381D01*
X6127D02*
Y7009D01*
X6148D01*
Y7019D01*
X6158D01*
Y7039D01*
X6148D01*
Y7049D01*
X6127D01*
Y7039D01*
X6117D01*
Y7019D01*
X6127D01*
X5873D02*
Y7009D01*
X5894D01*
Y7019D01*
X5904D01*
Y7039D01*
X5894D01*
Y7049D01*
X5873D01*
Y7039D01*
X5863D01*
Y7019D01*
X5873D01*
X5619D02*
Y7009D01*
X5640D01*
Y7019D01*
X5650D01*
Y7039D01*
X5640D01*
Y7049D01*
X5619D01*
Y7039D01*
X5609D01*
Y7019D01*
X5619D01*
X5365D02*
Y7009D01*
X5386D01*
Y7019D01*
X5396D01*
Y7039D01*
X5386D01*
Y7049D01*
X5365D01*
Y7039D01*
X5355D01*
Y7019D01*
X5365D01*
X3181Y11845D02*
Y11835D01*
X3201D01*
Y11845D01*
X3211D01*
Y11865D01*
X3201D01*
Y11875D01*
X3181D01*
Y11865D01*
X3171D01*
Y11845D01*
X3181D01*
X3435D02*
Y11835D01*
X3455D01*
Y11845D01*
X3465D01*
Y11865D01*
X3455D01*
Y11875D01*
X3435D01*
Y11865D01*
X3425D01*
Y11845D01*
X3435D01*
X3689D02*
Y11835D01*
X3709D01*
Y11845D01*
X3719D01*
Y11865D01*
X3709D01*
Y11875D01*
X3689D01*
Y11865D01*
X3679D01*
Y11845D01*
X3689D01*
X3943D02*
Y11835D01*
X3963D01*
Y11845D01*
X3973D01*
Y11865D01*
X3963D01*
Y11875D01*
X3943D01*
Y11865D01*
X3933D01*
Y11845D01*
X3943D01*
X4197D02*
Y11835D01*
X4217D01*
Y11845D01*
X4227D01*
Y11865D01*
X4217D01*
Y11875D01*
X4197D01*
Y11865D01*
X4187D01*
Y11845D01*
X4197D01*
X4451D02*
Y11835D01*
X4471D01*
Y11845D01*
X4481D01*
Y11865D01*
X4471D01*
Y11875D01*
X4451D01*
Y11865D01*
X4441D01*
Y11845D01*
X4451D01*
X4959D02*
Y11835D01*
X4979D01*
Y11845D01*
X4989D01*
Y11865D01*
X4979D01*
Y11875D01*
X4959D01*
Y11865D01*
X4949D01*
Y11845D01*
X4959D01*
X5213D02*
Y11835D01*
X5233D01*
Y11845D01*
X5243D01*
Y11865D01*
X5233D01*
Y11875D01*
X5213D01*
Y11865D01*
X5203D01*
Y11845D01*
X5213D01*
X5467D02*
Y11835D01*
X5487D01*
Y11845D01*
X5497D01*
Y11865D01*
X5487D01*
Y11875D01*
X5467D01*
Y11865D01*
X5457D01*
Y11845D01*
X5467D01*
X5721D02*
Y11835D01*
X5741D01*
Y11845D01*
X5751D01*
Y11865D01*
X5741D01*
Y11875D01*
X5721D01*
Y11865D01*
X5711D01*
Y11845D01*
X5721D01*
X5975D02*
Y11835D01*
X5995D01*
Y11845D01*
X6005D01*
Y11865D01*
X5995D01*
Y11875D01*
X5975D01*
Y11865D01*
X5965D01*
Y11845D01*
X5975D01*
X6229D02*
Y11835D01*
X6249D01*
Y11845D01*
X6259D01*
Y11865D01*
X6249D01*
Y11875D01*
X6229D01*
Y11865D01*
X6219D01*
Y11845D01*
X6229D01*
X6483D02*
Y11835D01*
X6503D01*
Y11845D01*
X6513D01*
Y11865D01*
X6503D01*
Y11875D01*
X6483D01*
Y11865D01*
X6473D01*
Y11845D01*
X6483D01*
X6737D02*
Y11835D01*
X6757D01*
Y11845D01*
X6767D01*
Y11865D01*
X6757D01*
Y11875D01*
X6737D01*
Y11865D01*
X6727D01*
Y11845D01*
X6737D01*
X3285Y14630D02*
Y14670D01*
X3325D01*
Y14630D01*
X3285D01*
X3295Y14640D02*
Y14660D01*
X3315D01*
Y14640D01*
X3295D01*
X2935Y14630D02*
Y14670D01*
X2975D01*
Y14630D01*
X2935D01*
X2945Y14640D02*
Y14660D01*
X2965D01*
Y14640D01*
X2945D01*
X12305Y15080D02*
X12285Y15120D01*
X12325D01*
X12305Y15080D01*
X2610Y5325D02*
X2590Y5365D01*
X2630D01*
X2610Y5325D01*
X2630Y15105D02*
X2610Y15145D01*
X2650D01*
X2630Y15105D01*
Y15115D02*
X2620Y15135D01*
X2640D01*
X2630Y15115D01*
X8305Y15100D02*
X8285Y15140D01*
X8325D01*
X8305Y15100D01*
X5385Y5880D02*
Y5920D01*
X5425D01*
Y5880D01*
X5385D01*
X4885D02*
Y5920D01*
X4925D01*
Y5880D01*
X4885D01*
X5885D02*
Y5920D01*
X5925D01*
Y5880D01*
X5885D01*
X12270Y5390D02*
X12250Y5430D01*
X12290D01*
X12270Y5390D01*
Y5400D02*
X12260Y5420D01*
X12280D01*
X12270Y5400D01*
X12305Y11045D02*
X12285Y11085D01*
X12325D01*
X12305Y11045D01*
X8305D02*
X8285Y11085D01*
X8325D01*
X8305Y11045D01*
X10029Y8057D02*
Y8097D01*
X10069D01*
Y8057D01*
X10029D01*
X10283D02*
Y8097D01*
X10323D01*
Y8057D01*
X10283D01*
X10537D02*
Y8097D01*
X10577D01*
Y8057D01*
X10537D01*
X10791D02*
Y8097D01*
X10831D01*
Y8057D01*
X10791D01*
X11045D02*
Y8097D01*
X11085D01*
Y8057D01*
X11045D01*
X11299D02*
Y8097D01*
X11339D01*
Y8057D01*
X11299D01*
X11553D02*
Y8097D01*
X11593D01*
Y8057D01*
X11553D01*
X11807D02*
Y8097D01*
X11847D01*
Y8057D01*
X11807D01*
X11440Y9505D02*
X11450D01*
X11460Y9515D01*
X11470Y9505D01*
X11480D01*
Y9515D01*
X11470Y9525D01*
X11480Y9535D01*
Y9545D01*
X11470D01*
X11460Y9535D01*
X11450Y9545D01*
X11440D01*
Y9535D01*
X11450Y9525D01*
X11440Y9515D01*
Y9505D01*
Y8605D02*
X11450D01*
X11460Y8615D01*
X11470Y8605D01*
X11480D01*
Y8615D01*
X11470Y8625D01*
X11480Y8635D01*
Y8645D01*
X11470D01*
X11460Y8635D01*
X11450Y8645D01*
X11440D01*
Y8635D01*
X11450Y8625D01*
X11440Y8615D01*
Y8605D01*
X10890Y9525D02*
X10900D01*
X10910Y9535D01*
X10920Y9525D01*
X10930D01*
Y9535D01*
X10920Y9545D01*
X10930Y9555D01*
Y9565D01*
X10920D01*
X10910Y9555D01*
X10900Y9565D01*
X10890D01*
Y9555D01*
X10900Y9545D01*
X10890Y9535D01*
Y9525D01*
Y8625D02*
X10900D01*
X10910Y8635D01*
X10920Y8625D01*
X10930D01*
Y8635D01*
X10920Y8645D01*
X10930Y8655D01*
Y8665D01*
X10920D01*
X10910Y8655D01*
X10900Y8665D01*
X10890D01*
Y8655D01*
X10900Y8645D01*
X10890Y8635D01*
Y8625D01*
X10285Y9505D02*
X10295D01*
X10305Y9515D01*
X10315Y9505D01*
X10325D01*
Y9515D01*
X10315Y9525D01*
X10325Y9535D01*
Y9545D01*
X10315D01*
X10305Y9535D01*
X10295Y9545D01*
X10285D01*
Y9535D01*
X10295Y9525D01*
X10285Y9515D01*
Y9505D01*
Y8605D02*
X10295D01*
X10305Y8615D01*
X10315Y8605D01*
X10325D01*
Y8615D01*
X10315Y8625D01*
X10325Y8635D01*
Y8645D01*
X10315D01*
X10305Y8635D01*
X10295Y8645D01*
X10285D01*
Y8635D01*
X10295Y8625D01*
X10285Y8615D01*
Y8605D01*
M02*
