G04*
G04 #@! TF.GenerationSoftware,Altium Limited,Altium Designer,23.0.1 (38)*
G04*
G04 Layer_Color=65535*
%FSLAX42Y42*%
%MOMM*%
G71*
G04*
G04 #@! TF.SameCoordinates,5E3E34A1-7FEC-4214-86D8-9FB3ECCAC709*
G04*
G04*
G04 #@! TF.FilePolarity,Positive*
G04*
G01*
G75*
%ADD10C,0.25*%
%ADD11C,0.25*%
%ADD12C,0.20*%
%ADD13C,0.15*%
%ADD14C,0.30*%
%ADD15C,0.15*%
%ADD16C,0.10*%
%ADD17C,0.12*%
D10*
X9831Y6138D02*
G03*
X9831Y6138I-12J0D01*
G01*
X3308Y6611D02*
G03*
X3308Y6611I-12J0D01*
G01*
D11*
X3036Y12109D02*
G03*
X2937Y12007I1J-100D01*
G01*
X9541D02*
G03*
X9439Y12109I-102J0D01*
G01*
Y6775D02*
G03*
X9541Y6874I1J100D01*
G01*
X9707Y10020D02*
X11930D01*
X9707Y11695D02*
X11930D01*
Y10020D02*
Y11695D01*
X9707Y10020D02*
Y11695D01*
Y12045D02*
X11930D01*
X9707Y13720D02*
X11930D01*
Y12045D02*
Y13720D01*
X9707Y12045D02*
Y13720D01*
X3729Y14902D02*
X9164D01*
X3729Y12476D02*
X9164D01*
X3729D02*
Y14902D01*
X9164Y12476D02*
Y14902D01*
X3089Y6775D02*
X9439D01*
X2937Y6927D02*
X3089Y6775D01*
X2937Y6927D02*
Y8070D01*
X2683Y8324D02*
Y11601D01*
X2937Y11855D01*
Y12007D01*
X3036Y12109D02*
X9439D01*
X9541Y6874D02*
Y12007D01*
X2683Y8324D02*
X2937Y8070D01*
X9897Y8235D02*
X12035D01*
X9897Y6615D02*
X12035D01*
Y8235D01*
X9897Y6615D02*
Y8235D01*
X2705Y12445D02*
X2739D01*
X2722D01*
Y12345D01*
X2705D01*
X2739D01*
X2789D02*
Y12445D01*
X2855Y12345D01*
Y12445D01*
X2670Y13520D02*
X2704D01*
X2687D01*
Y13420D01*
X2670D01*
X2704D01*
X2754D02*
Y13520D01*
X2820Y13420D01*
Y13520D01*
X3812Y6210D02*
X3745D01*
Y6110D01*
X3812D01*
X3745Y6160D02*
X3779D01*
X3845Y6110D02*
Y6210D01*
X3912Y6110D01*
Y6210D01*
X3945Y6110D02*
Y6177D01*
X3979Y6210D01*
X4012Y6177D01*
Y6110D01*
Y6160D01*
X3945D01*
X3745Y6465D02*
Y6365D01*
X3812D01*
X3845D02*
Y6465D01*
X3895D01*
X3912Y6449D01*
Y6415D01*
X3895Y6399D01*
X3845D01*
X3945Y6465D02*
Y6365D01*
X3979Y6399D01*
X4012Y6365D01*
Y6465D01*
X4045Y6365D02*
Y6465D01*
X4079Y6432D01*
X4112Y6465D01*
Y6365D01*
X2815Y6345D02*
Y6445D01*
X2865D01*
X2882Y6429D01*
Y6395D01*
X2865Y6379D01*
X2815D01*
X2849D02*
X2882Y6345D01*
X2915D02*
Y6445D01*
X2965D01*
X2982Y6429D01*
Y6395D01*
X2965Y6379D01*
X2915D01*
X3015Y6445D02*
Y6345D01*
X3049Y6379D01*
X3082Y6345D01*
Y6445D01*
X3115Y6345D02*
Y6445D01*
X3149Y6412D01*
X3182Y6445D01*
Y6345D01*
X5315Y5190D02*
X5381D01*
X5415Y5224D01*
X5381Y5257D01*
X5315D01*
X5331Y5357D02*
X5315Y5340D01*
Y5307D01*
X5331Y5290D01*
X5398D01*
X5415Y5307D01*
Y5340D01*
X5398Y5357D01*
X5331Y5457D02*
X5315Y5440D01*
Y5407D01*
X5331Y5390D01*
X5398D01*
X5415Y5407D01*
Y5440D01*
X5398Y5457D01*
X5965Y5205D02*
X5865D01*
Y5255D01*
X5881Y5272D01*
X5915D01*
X5931Y5255D01*
Y5205D01*
X5865Y5305D02*
X5965D01*
X5931Y5339D01*
X5965Y5372D01*
X5865D01*
X5965Y5405D02*
X5865D01*
X5898Y5439D01*
X5865Y5472D01*
X5965D01*
X6680Y6140D02*
Y6240D01*
X6730D01*
X6747Y6224D01*
Y6190D01*
X6730Y6174D01*
X6680D01*
X6780Y6240D02*
Y6140D01*
X6814Y6174D01*
X6847Y6140D01*
Y6240D01*
X6880Y6140D02*
Y6240D01*
X6914Y6207D01*
X6947Y6240D01*
Y6140D01*
X6695Y5945D02*
Y5879D01*
X6729Y5845D01*
X6762Y5879D01*
Y5945D01*
X6862Y5929D02*
X6845Y5945D01*
X6812D01*
X6795Y5929D01*
Y5862D01*
X6812Y5845D01*
X6845D01*
X6862Y5862D01*
X6962Y5929D02*
X6945Y5945D01*
X6912D01*
X6895Y5929D01*
Y5862D01*
X6912Y5845D01*
X6945D01*
X6962Y5862D01*
X9796Y5532D02*
X9780Y5515D01*
Y5482D01*
X9796Y5465D01*
X9813D01*
X9830Y5482D01*
Y5515D01*
X9846Y5532D01*
X9863D01*
X9880Y5515D01*
Y5482D01*
X9863Y5465D01*
X9796Y5632D02*
X9780Y5615D01*
Y5582D01*
X9796Y5565D01*
X9863D01*
X9880Y5582D01*
Y5615D01*
X9863Y5632D01*
X9780Y5665D02*
X9880D01*
Y5732D01*
X9561Y5542D02*
X9545Y5525D01*
Y5492D01*
X9561Y5475D01*
X9578D01*
X9595Y5492D01*
Y5525D01*
X9611Y5542D01*
X9628D01*
X9645Y5525D01*
Y5492D01*
X9628Y5475D01*
X9545Y5575D02*
X9645D01*
Y5625D01*
X9628Y5642D01*
X9561D01*
X9545Y5625D01*
Y5575D01*
X9645Y5675D02*
X9578D01*
X9545Y5709D01*
X9578Y5742D01*
X9645D01*
X9595D01*
Y5675D01*
X9025Y5637D02*
Y5570D01*
X9075D01*
X9058Y5604D01*
Y5620D01*
X9075Y5637D01*
X9108D01*
X9125Y5620D01*
Y5587D01*
X9108Y5570D01*
X9025Y5670D02*
X9091D01*
X9125Y5704D01*
X9091Y5737D01*
X9025D01*
X3022Y5680D02*
X2955D01*
Y5630D01*
X2989Y5647D01*
X3005D01*
X3022Y5630D01*
Y5597D01*
X3005Y5580D01*
X2972D01*
X2955Y5597D01*
X3055Y5680D02*
Y5614D01*
X3089Y5580D01*
X3122Y5614D01*
Y5680D01*
X2767Y12715D02*
X2700D01*
Y12665D01*
X2734Y12682D01*
X2750D01*
X2767Y12665D01*
Y12632D01*
X2750Y12615D01*
X2717D01*
X2700Y12632D01*
X2800Y12715D02*
Y12649D01*
X2834Y12615D01*
X2867Y12649D01*
Y12715D01*
X2732Y13810D02*
X2665D01*
Y13760D01*
X2699Y13777D01*
X2715D01*
X2732Y13760D01*
Y13727D01*
X2715Y13710D01*
X2682D01*
X2665Y13727D01*
X2765Y13810D02*
Y13744D01*
X2799Y13710D01*
X2832Y13744D01*
Y13810D01*
X9276Y5557D02*
X9260Y5540D01*
Y5507D01*
X9276Y5490D01*
X9343D01*
X9360Y5507D01*
Y5540D01*
X9343Y5557D01*
X9310D01*
Y5524D01*
X9360Y5590D02*
X9260D01*
X9360Y5657D01*
X9260D01*
Y5690D02*
X9360D01*
Y5740D01*
X9343Y5757D01*
X9276D01*
X9260Y5740D01*
Y5690D01*
X10150Y6051D02*
X10099D01*
X10124D01*
Y5924D01*
X10099Y5899D01*
X10073D01*
X10048Y5924D01*
X10302Y5899D02*
X10200D01*
X10302Y6000D01*
Y6026D01*
X10277Y6051D01*
X10226D01*
X10200Y6026D01*
X6782Y5614D02*
X6765Y5630D01*
X6732D01*
X6715Y5614D01*
Y5547D01*
X6732Y5530D01*
X6765D01*
X6782Y5547D01*
Y5580D01*
X6749D01*
X6815Y5530D02*
Y5630D01*
X6882Y5530D01*
Y5630D01*
X6915D02*
Y5530D01*
X6965D01*
X6982Y5547D01*
Y5614D01*
X6965Y5630D01*
X6915D01*
X4876Y5247D02*
X4860Y5230D01*
Y5197D01*
X4876Y5180D01*
X4943D01*
X4960Y5197D01*
Y5230D01*
X4943Y5247D01*
X4910D01*
Y5214D01*
X4960Y5280D02*
X4860D01*
X4960Y5347D01*
X4860D01*
Y5380D02*
X4960D01*
Y5430D01*
X4943Y5447D01*
X4876D01*
X4860Y5430D01*
Y5380D01*
X3787Y5669D02*
X3770Y5685D01*
X3737D01*
X3720Y5669D01*
Y5602D01*
X3737Y5585D01*
X3770D01*
X3787Y5602D01*
Y5635D01*
X3754D01*
X3820Y5585D02*
Y5685D01*
X3887Y5585D01*
Y5685D01*
X3920D02*
Y5585D01*
X3970D01*
X3987Y5602D01*
Y5669D01*
X3970Y5685D01*
X3920D01*
X2687Y12959D02*
X2670Y12975D01*
X2637D01*
X2620Y12959D01*
Y12892D01*
X2637Y12875D01*
X2670D01*
X2687Y12892D01*
Y12925D01*
X2654D01*
X2720Y12875D02*
Y12975D01*
X2787Y12875D01*
Y12975D01*
X2820D02*
Y12875D01*
X2870D01*
X2887Y12892D01*
Y12959D01*
X2870Y12975D01*
X2820D01*
X2672Y14024D02*
X2655Y14040D01*
X2622D01*
X2605Y14024D01*
Y13957D01*
X2622Y13940D01*
X2655D01*
X2672Y13957D01*
Y13990D01*
X2639D01*
X2705Y13940D02*
Y14040D01*
X2772Y13940D01*
Y14040D01*
X2805D02*
Y13940D01*
X2855D01*
X2872Y13957D01*
Y14024D01*
X2855Y14040D01*
X2805D01*
X2935Y12215D02*
Y12132D01*
X2952Y12115D01*
X2985D01*
X3002Y12132D01*
Y12215D01*
X3035D02*
Y12115D01*
X3102D01*
X3135Y12215D02*
X3202D01*
X3169D01*
Y12115D01*
X3235D02*
Y12215D01*
X3285D01*
X3302Y12199D01*
Y12165D01*
X3285Y12149D01*
X3235D01*
X3269D02*
X3302Y12115D01*
X3335D02*
Y12182D01*
X3369Y12215D01*
X3402Y12182D01*
Y12115D01*
Y12165D01*
X3335D01*
X3502Y12199D02*
X3485Y12215D01*
X3452D01*
X3435Y12199D01*
Y12182D01*
X3452Y12165D01*
X3485D01*
X3502Y12149D01*
Y12132D01*
X3485Y12115D01*
X3452D01*
X3435Y12132D01*
X3585Y12215D02*
X3552D01*
X3535Y12199D01*
Y12132D01*
X3552Y12115D01*
X3585D01*
X3602Y12132D01*
Y12199D01*
X3585Y12215D01*
X3635Y12115D02*
Y12215D01*
X3702Y12115D01*
Y12215D01*
X3735D02*
X3768D01*
X3752D01*
Y12115D01*
X3735D01*
X3768D01*
X3885Y12199D02*
X3868Y12215D01*
X3835D01*
X3818Y12199D01*
Y12132D01*
X3835Y12115D01*
X3868D01*
X3885Y12132D01*
X4085Y12115D02*
X4018D01*
X4085Y12182D01*
Y12199D01*
X4068Y12215D01*
X4035D01*
X4018Y12199D01*
X3278Y12899D02*
Y13051D01*
X3354D01*
X3380Y13026D01*
Y12975D01*
X3354Y12950D01*
X3278D01*
X3430Y13026D02*
X3456Y13051D01*
X3507D01*
X3532Y13026D01*
Y13000D01*
X3507Y12975D01*
X3481D01*
X3507D01*
X3532Y12950D01*
Y12924D01*
X3507Y12899D01*
X3456D01*
X3430Y12924D01*
X11585Y14900D02*
X11685D01*
Y14950D01*
X11668Y14967D01*
X11651D01*
X11635Y14950D01*
Y14900D01*
Y14950D01*
X11618Y14967D01*
X11601D01*
X11585Y14950D01*
Y14900D01*
X11685Y15000D02*
X11618D01*
X11585Y15034D01*
X11618Y15067D01*
X11685D01*
X11635D01*
Y15000D01*
X11585Y15100D02*
Y15167D01*
Y15134D01*
X11685D01*
X11635Y15200D02*
Y15267D01*
X11210Y14910D02*
X11310D01*
Y14960D01*
X11293Y14977D01*
X11276D01*
X11260Y14960D01*
Y14910D01*
Y14960D01*
X11243Y14977D01*
X11226D01*
X11210Y14960D01*
Y14910D01*
X11310Y15010D02*
X11243D01*
X11210Y15044D01*
X11243Y15077D01*
X11310D01*
X11260D01*
Y15010D01*
X11210Y15110D02*
Y15177D01*
Y15144D01*
X11310D01*
X11260Y15210D02*
Y15277D01*
X11226Y15244D02*
X11293D01*
X10960Y14796D02*
X10909D01*
X10935D01*
Y14669D01*
X10909Y14644D01*
X10884D01*
X10858Y14669D01*
X11011Y14644D02*
X11062D01*
X11036D01*
Y14796D01*
X11011Y14771D01*
X9723Y11759D02*
Y11911D01*
X9774Y11860D01*
X9825Y11911D01*
Y11759D01*
X9875Y11886D02*
X9901Y11911D01*
X9952D01*
X9977Y11886D01*
Y11860D01*
X9952Y11835D01*
X9926D01*
X9952D01*
X9977Y11810D01*
Y11784D01*
X9952Y11759D01*
X9901D01*
X9875Y11784D01*
X10065Y10785D02*
Y10905D01*
X10105Y10865D01*
X10145Y10905D01*
Y10785D01*
X10185D02*
Y10905D01*
X10245D01*
X10265Y10885D01*
Y10845D01*
X10245Y10825D01*
X10185D01*
X10305Y10785D02*
X10345D01*
X10325D01*
Y10905D01*
X10305Y10885D01*
X10485Y10905D02*
X10405D01*
Y10845D01*
X10445Y10865D01*
X10465D01*
X10485Y10845D01*
Y10805D01*
X10465Y10785D01*
X10425D01*
X10405Y10805D01*
X10525Y10885D02*
X10545Y10905D01*
X10585D01*
X10605Y10885D01*
Y10865D01*
X10585Y10845D01*
X10605Y10825D01*
Y10805D01*
X10585Y10785D01*
X10545D01*
X10525Y10805D01*
Y10825D01*
X10545Y10845D01*
X10525Y10865D01*
Y10885D01*
X10545Y10845D02*
X10585D01*
X10705Y10785D02*
Y10905D01*
X10645Y10845D01*
X10725D01*
X10885Y10785D02*
Y10905D01*
X10925Y10865D01*
X10965Y10905D01*
Y10785D01*
X11065Y10905D02*
X11025D01*
X11005Y10885D01*
Y10805D01*
X11025Y10785D01*
X11065D01*
X11085Y10805D01*
Y10885D01*
X11065Y10905D01*
X11125D02*
Y10785D01*
X11185D01*
X11205Y10805D01*
Y10885D01*
X11185Y10905D01*
X11125D01*
X11245D02*
Y10805D01*
X11265Y10785D01*
X11305D01*
X11325Y10805D01*
Y10905D01*
X11365D02*
Y10785D01*
X11445D01*
X11565Y10905D02*
X11485D01*
Y10785D01*
X11565D01*
X11485Y10845D02*
X11525D01*
X9383Y13589D02*
Y13741D01*
X9434Y13690D01*
X9485Y13741D01*
Y13589D01*
X9637D02*
X9535D01*
X9637Y13690D01*
Y13716D01*
X9612Y13741D01*
X9561D01*
X9535Y13716D01*
X10065Y12810D02*
Y12930D01*
X10105Y12890D01*
X10145Y12930D01*
Y12810D01*
X10185D02*
Y12930D01*
X10245D01*
X10265Y12910D01*
Y12870D01*
X10245Y12850D01*
X10185D01*
X10305Y12810D02*
X10345D01*
X10325D01*
Y12930D01*
X10305Y12910D01*
X10485Y12930D02*
X10405D01*
Y12870D01*
X10445Y12890D01*
X10465D01*
X10485Y12870D01*
Y12830D01*
X10465Y12810D01*
X10425D01*
X10405Y12830D01*
X10525Y12910D02*
X10545Y12930D01*
X10585D01*
X10605Y12910D01*
Y12890D01*
X10585Y12870D01*
X10605Y12850D01*
Y12830D01*
X10585Y12810D01*
X10545D01*
X10525Y12830D01*
Y12850D01*
X10545Y12870D01*
X10525Y12890D01*
Y12910D01*
X10545Y12870D02*
X10585D01*
X10705Y12810D02*
Y12930D01*
X10645Y12870D01*
X10725D01*
X10885Y12810D02*
Y12930D01*
X10925Y12890D01*
X10965Y12930D01*
Y12810D01*
X11065Y12930D02*
X11025D01*
X11005Y12910D01*
Y12830D01*
X11025Y12810D01*
X11065D01*
X11085Y12830D01*
Y12910D01*
X11065Y12930D01*
X11125D02*
Y12810D01*
X11185D01*
X11205Y12830D01*
Y12910D01*
X11185Y12930D01*
X11125D01*
X11245D02*
Y12830D01*
X11265Y12810D01*
X11305D01*
X11325Y12830D01*
Y12930D01*
X11365D02*
Y12810D01*
X11445D01*
X11565Y12930D02*
X11485D01*
Y12810D01*
X11565D01*
X11485Y12870D02*
X11525D01*
X9414Y14096D02*
X9388Y14121D01*
X9338D01*
X9312Y14096D01*
Y14070D01*
X9338Y14045D01*
X9388D01*
X9414Y14020D01*
Y13994D01*
X9388Y13969D01*
X9338D01*
X9312Y13994D01*
X9465Y14121D02*
Y13969D01*
X9515Y14020D01*
X9566Y13969D01*
Y14121D01*
X9617Y13969D02*
X9668D01*
X9642D01*
Y14121D01*
X9617Y14096D01*
X9355Y15050D02*
X9422D01*
X9389D01*
Y14950D01*
X9505Y15050D02*
X9472D01*
X9455Y15034D01*
Y14967D01*
X9472Y14950D01*
X9505D01*
X9522Y14967D01*
Y15034D01*
X9505Y15050D01*
X9622Y15034D02*
X9605Y15050D01*
X9572D01*
X9555Y15034D01*
Y14967D01*
X9572Y14950D01*
X9605D01*
X9622Y14967D01*
Y15000D01*
X9589D01*
X9722Y15034D02*
X9705Y15050D01*
X9672D01*
X9655Y15034D01*
Y14967D01*
X9672Y14950D01*
X9705D01*
X9722Y14967D01*
Y15000D01*
X9689D01*
X9755Y15050D02*
Y14950D01*
X9822D01*
X9922Y15050D02*
X9855D01*
Y14950D01*
X9922D01*
X9855Y15000D02*
X9889D01*
X10122Y15034D02*
X10105Y15050D01*
X10072D01*
X10055Y15034D01*
Y15017D01*
X10072Y15000D01*
X10105D01*
X10122Y14984D01*
Y14967D01*
X10105Y14950D01*
X10072D01*
X10055Y14967D01*
X10155Y15050D02*
Y14950D01*
X10188Y14984D01*
X10222Y14950D01*
Y15050D01*
X10255D02*
X10288D01*
X10272D01*
Y14950D01*
X10255D01*
X10288D01*
X10338Y15050D02*
X10405D01*
X10372D01*
Y14950D01*
X10505Y15034D02*
X10488Y15050D01*
X10455D01*
X10438Y15034D01*
Y14967D01*
X10455Y14950D01*
X10488D01*
X10505Y14967D01*
X10538Y15050D02*
Y14950D01*
Y15000D01*
X10605D01*
Y15050D01*
Y14950D01*
X3741Y14991D02*
Y15143D01*
X3792Y15093D01*
X3843Y15143D01*
Y14991D01*
X3894D02*
X3945D01*
X3919D01*
Y15143D01*
X3894Y15118D01*
X5950Y13705D02*
X6030Y13585D01*
Y13705D02*
X5950Y13585D01*
X6070Y13705D02*
Y13585D01*
X6150D01*
X6250D02*
Y13705D01*
X6190Y13645D01*
X6270D01*
X6310Y13685D02*
X6330Y13705D01*
X6370D01*
X6390Y13685D01*
Y13605D01*
X6370Y13585D01*
X6330D01*
X6310Y13605D01*
Y13685D01*
X6430Y13585D02*
X6470D01*
X6450D01*
Y13705D01*
X6430Y13685D01*
X6610Y13705D02*
X6530D01*
Y13645D01*
X6570Y13665D01*
X6590D01*
X6610Y13645D01*
Y13605D01*
X6590Y13585D01*
X6550D01*
X6530Y13605D01*
X6770Y13585D02*
Y13705D01*
X6810Y13665D01*
X6850Y13705D01*
Y13585D01*
X6950Y13705D02*
X6910D01*
X6890Y13685D01*
Y13605D01*
X6910Y13585D01*
X6950D01*
X6970Y13605D01*
Y13685D01*
X6950Y13705D01*
X7010D02*
Y13585D01*
X7070D01*
X7090Y13605D01*
Y13685D01*
X7070Y13705D01*
X7010D01*
X7130D02*
Y13605D01*
X7150Y13585D01*
X7190D01*
X7210Y13605D01*
Y13705D01*
X7250D02*
Y13585D01*
X7330D01*
X7450Y13705D02*
X7370D01*
Y13585D01*
X7450D01*
X7370Y13645D02*
X7410D01*
X4620Y9675D02*
Y9777D01*
X4671Y9827D01*
X4722Y9777D01*
Y9675D01*
Y9751D01*
X4620D01*
X4772Y9777D02*
Y9675D01*
Y9726D01*
X4798Y9751D01*
X4823Y9777D01*
X4849D01*
X5026Y9827D02*
Y9675D01*
X4950D01*
X4925Y9700D01*
Y9751D01*
X4950Y9777D01*
X5026D01*
X5077D02*
Y9700D01*
X5102Y9675D01*
X5179D01*
Y9777D01*
X5229Y9675D02*
X5280D01*
X5255D01*
Y9777D01*
X5229D01*
X5356Y9675D02*
Y9777D01*
X5433D01*
X5458Y9751D01*
Y9675D01*
X5534D02*
X5585D01*
X5610Y9700D01*
Y9751D01*
X5585Y9777D01*
X5534D01*
X5509Y9751D01*
Y9700D01*
X5534Y9675D01*
X5915Y9802D02*
X5890Y9827D01*
X5839D01*
X5813Y9802D01*
Y9777D01*
X5839Y9751D01*
X5890D01*
X5915Y9726D01*
Y9700D01*
X5890Y9675D01*
X5839D01*
X5813Y9700D01*
X5966Y9827D02*
Y9675D01*
Y9751D01*
X5991Y9777D01*
X6042D01*
X6067Y9751D01*
Y9675D01*
X6118D02*
X6169D01*
X6144D01*
Y9777D01*
X6118D01*
X6321Y9675D02*
X6270D01*
X6245Y9700D01*
Y9751D01*
X6270Y9777D01*
X6321D01*
X6347Y9751D01*
Y9726D01*
X6245D01*
X6397Y9675D02*
X6448D01*
X6423D01*
Y9827D01*
X6397D01*
X6626D02*
Y9675D01*
X6550D01*
X6524Y9700D01*
Y9751D01*
X6550Y9777D01*
X6626D01*
X2886Y15092D02*
X2870Y15075D01*
Y15042D01*
X2886Y15025D01*
X2953D01*
X2970Y15042D01*
Y15075D01*
X2953Y15092D01*
X2920D01*
Y15059D01*
X2970Y15125D02*
X2870D01*
X2970Y15192D01*
X2870D01*
Y15225D02*
X2970D01*
Y15275D01*
X2953Y15292D01*
X2886D01*
X2870Y15275D01*
Y15225D01*
X3390Y15020D02*
Y15054D01*
Y15037D01*
X3290D01*
X3306Y15020D01*
X3390Y15170D02*
Y15104D01*
X3323Y15170D01*
X3306D01*
X3290Y15154D01*
Y15120D01*
X3306Y15104D01*
X3290Y15204D02*
X3356D01*
X3390Y15237D01*
X3356Y15270D01*
X3290D01*
X2580Y14736D02*
X2529D01*
X2554D01*
Y14609D01*
X2529Y14584D01*
X2503D01*
X2478Y14609D01*
X2707Y14584D02*
Y14736D01*
X2630Y14660D01*
X2732D01*
X2940Y13270D02*
Y13187D01*
X2957Y13170D01*
X2990D01*
X3007Y13187D01*
Y13270D01*
X3040D02*
Y13170D01*
X3107D01*
X3140Y13270D02*
X3207D01*
X3174D01*
Y13170D01*
X3240D02*
Y13270D01*
X3290D01*
X3307Y13254D01*
Y13220D01*
X3290Y13204D01*
X3240D01*
X3274D02*
X3307Y13170D01*
X3340D02*
Y13237D01*
X3374Y13270D01*
X3407Y13237D01*
Y13170D01*
Y13220D01*
X3340D01*
X3507Y13254D02*
X3490Y13270D01*
X3457D01*
X3440Y13254D01*
Y13237D01*
X3457Y13220D01*
X3490D01*
X3507Y13204D01*
Y13187D01*
X3490Y13170D01*
X3457D01*
X3440Y13187D01*
X3590Y13270D02*
X3557D01*
X3540Y13254D01*
Y13187D01*
X3557Y13170D01*
X3590D01*
X3607Y13187D01*
Y13254D01*
X3590Y13270D01*
X3640Y13170D02*
Y13270D01*
X3707Y13170D01*
Y13270D01*
X3740D02*
X3773D01*
X3757D01*
Y13170D01*
X3740D01*
X3773D01*
X3890Y13254D02*
X3873Y13270D01*
X3840D01*
X3823Y13254D01*
Y13187D01*
X3840Y13170D01*
X3873D01*
X3890Y13187D01*
X4023Y13170D02*
X4057D01*
X4040D01*
Y13270D01*
X4023Y13254D01*
X8700Y6295D02*
Y6195D01*
Y6245D01*
X8767D01*
Y6295D01*
Y6195D01*
X8800Y6295D02*
Y6212D01*
X8817Y6195D01*
X8850D01*
X8867Y6212D01*
Y6295D01*
X8967Y6279D02*
X8950Y6295D01*
X8917D01*
X8900Y6279D01*
Y6262D01*
X8917Y6245D01*
X8950D01*
X8967Y6229D01*
Y6212D01*
X8950Y6195D01*
X8917D01*
X8900Y6212D01*
X9000Y6295D02*
Y6195D01*
Y6229D01*
X9067Y6295D01*
X9017Y6245D01*
X9067Y6195D01*
X9167Y6295D02*
X9100D01*
Y6195D01*
X9167D01*
X9100Y6245D02*
X9134D01*
X9200Y6295D02*
Y6279D01*
X9234Y6245D01*
X9267Y6279D01*
Y6295D01*
X9234Y6245D02*
Y6195D01*
X9300Y6295D02*
Y6195D01*
X9367D01*
X9467Y6295D02*
X9400D01*
Y6195D01*
X9467D01*
X9400Y6245D02*
X9433D01*
X9500Y6195D02*
Y6295D01*
X9567Y6195D01*
Y6295D01*
X9667Y6279D02*
X9650Y6295D01*
X9617D01*
X9600Y6279D01*
Y6262D01*
X9617Y6245D01*
X9650D01*
X9667Y6229D01*
Y6212D01*
X9650Y6195D01*
X9617D01*
X9600Y6212D01*
X9833Y6195D02*
X9800Y6229D01*
Y6262D01*
X9833Y6295D01*
X9883D02*
X9917D01*
X9900D01*
Y6195D01*
X9883D01*
X9917D01*
X10033D02*
X9967D01*
X10033Y6262D01*
Y6279D01*
X10017Y6295D01*
X9983D01*
X9967Y6279D01*
X10133D02*
X10117Y6295D01*
X10083D01*
X10067Y6279D01*
Y6212D01*
X10083Y6195D01*
X10117D01*
X10133Y6212D01*
X10167Y6195D02*
X10200Y6229D01*
Y6262D01*
X10167Y6295D01*
X6827Y6479D02*
X6810Y6495D01*
X6777D01*
X6760Y6479D01*
Y6462D01*
X6777Y6445D01*
X6810D01*
X6827Y6429D01*
Y6412D01*
X6810Y6395D01*
X6777D01*
X6760Y6412D01*
X6927Y6495D02*
X6860D01*
Y6395D01*
X6927D01*
X6860Y6445D02*
X6894D01*
X6960Y6395D02*
Y6495D01*
X7010D01*
X7027Y6479D01*
Y6445D01*
X7010Y6429D01*
X6960D01*
X6994D02*
X7027Y6395D01*
X7060Y6495D02*
Y6429D01*
X7094Y6395D01*
X7127Y6429D01*
Y6495D01*
X7210D02*
X7177D01*
X7160Y6479D01*
Y6412D01*
X7177Y6395D01*
X7210D01*
X7227Y6412D01*
Y6479D01*
X7210Y6495D01*
X7360D02*
X7427D01*
X7394D01*
Y6395D01*
X7527Y6495D02*
X7460D01*
Y6395D01*
X7527D01*
X7460Y6445D02*
X7493D01*
X7560Y6395D02*
Y6495D01*
X7610D01*
X7627Y6479D01*
Y6445D01*
X7610Y6429D01*
X7560D01*
X7593D02*
X7627Y6395D01*
X7660D02*
Y6412D01*
X7677D01*
Y6395D01*
X7660D01*
X5162Y6534D02*
X5145Y6550D01*
X5112D01*
X5095Y6534D01*
Y6517D01*
X5112Y6500D01*
X5145D01*
X5162Y6484D01*
Y6467D01*
X5145Y6450D01*
X5112D01*
X5095Y6467D01*
X5262Y6550D02*
X5195D01*
Y6450D01*
X5262D01*
X5195Y6500D02*
X5229D01*
X5295Y6450D02*
Y6550D01*
X5345D01*
X5362Y6534D01*
Y6500D01*
X5345Y6484D01*
X5295D01*
X5329D02*
X5362Y6450D01*
X5395Y6550D02*
Y6484D01*
X5429Y6450D01*
X5462Y6484D01*
Y6550D01*
X5545D02*
X5512D01*
X5495Y6534D01*
Y6467D01*
X5512Y6450D01*
X5545D01*
X5562Y6467D01*
Y6534D01*
X5545Y6550D01*
X5695D02*
X5762D01*
X5729D01*
Y6450D01*
X5862Y6550D02*
X5795D01*
Y6450D01*
X5862D01*
X5795Y6500D02*
X5828D01*
X5895Y6450D02*
Y6550D01*
X5945D01*
X5962Y6534D01*
Y6500D01*
X5945Y6484D01*
X5895D01*
X5928D02*
X5962Y6450D01*
X5995D02*
Y6467D01*
X6012D01*
Y6450D01*
X5995D01*
X3040Y6745D02*
Y6615D01*
X3105D01*
X3127Y6637D01*
Y6659D01*
X3105Y6680D01*
X3040D01*
X3105D01*
X3127Y6702D01*
Y6724D01*
X3105Y6745D01*
X3040D01*
X3170D02*
X3257D01*
X3214D01*
Y6615D01*
X3387Y6724D02*
X3365Y6745D01*
X3322D01*
X3300Y6724D01*
Y6702D01*
X3322Y6680D01*
X3365D01*
X3387Y6659D01*
Y6637D01*
X3365Y6615D01*
X3322D01*
X3300Y6637D01*
X3430Y6745D02*
X3517D01*
Y6724D01*
X3430Y6637D01*
Y6615D01*
X3560Y6637D02*
X3582Y6615D01*
X3625D01*
X3647Y6637D01*
Y6724D01*
X3625Y6745D01*
X3582D01*
X3560Y6724D01*
Y6702D01*
X3582Y6680D01*
X3647D01*
X3777Y6745D02*
X3734Y6724D01*
X3690Y6680D01*
Y6637D01*
X3712Y6615D01*
X3755D01*
X3777Y6637D01*
Y6659D01*
X3755Y6680D01*
X3690D01*
X3820Y6724D02*
X3842Y6745D01*
X3885D01*
X3907Y6724D01*
Y6637D01*
X3885Y6615D01*
X3842D01*
X3820Y6637D01*
Y6724D01*
X3273Y13954D02*
Y14106D01*
X3349D01*
X3375Y14081D01*
Y14030D01*
X3349Y14005D01*
X3273D01*
X3527Y13954D02*
X3425D01*
X3527Y14055D01*
Y14081D01*
X3502Y14106D01*
X3451D01*
X3425Y14081D01*
X10730Y7285D02*
Y7405D01*
X10770Y7365D01*
X10810Y7405D01*
Y7285D01*
X10850D02*
Y7405D01*
X10910D01*
X10930Y7385D01*
Y7345D01*
X10910Y7325D01*
X10850D01*
X10970Y7405D02*
Y7305D01*
X10990Y7285D01*
X11030D01*
X11050Y7305D01*
Y7405D01*
X11170D02*
X11130Y7385D01*
X11090Y7345D01*
Y7305D01*
X11110Y7285D01*
X11150D01*
X11170Y7305D01*
Y7325D01*
X11150Y7345D01*
X11090D01*
X11210Y7385D02*
X11230Y7405D01*
X11270D01*
X11290Y7385D01*
Y7305D01*
X11270Y7285D01*
X11230D01*
X11210Y7305D01*
Y7385D01*
X11410Y7405D02*
X11330D01*
Y7345D01*
X11370Y7365D01*
X11390D01*
X11410Y7345D01*
Y7305D01*
X11390Y7285D01*
X11350D01*
X11330Y7305D01*
X11450Y7385D02*
X11470Y7405D01*
X11510D01*
X11530Y7385D01*
Y7305D01*
X11510Y7285D01*
X11470D01*
X11450Y7305D01*
Y7385D01*
X10198Y9721D02*
Y9873D01*
X10274D01*
X10300Y9848D01*
Y9797D01*
X10274Y9771D01*
X10198D01*
X10249D02*
X10300Y9721D01*
X10350Y9848D02*
X10376Y9873D01*
X10427D01*
X10452Y9848D01*
Y9822D01*
X10427Y9797D01*
X10401D01*
X10427D01*
X10452Y9771D01*
Y9746D01*
X10427Y9721D01*
X10376D01*
X10350Y9746D01*
X10803Y9741D02*
Y9893D01*
X10879D01*
X10904Y9868D01*
Y9817D01*
X10879Y9792D01*
X10803D01*
X10853D02*
X10904Y9741D01*
X11057D02*
X10955D01*
X11057Y9842D01*
Y9868D01*
X11031Y9893D01*
X10980D01*
X10955Y9868D01*
X11354Y9721D02*
Y9873D01*
X11430D01*
X11455Y9848D01*
Y9797D01*
X11430Y9771D01*
X11354D01*
X11405D02*
X11455Y9721D01*
X11506D02*
X11557D01*
X11532D01*
Y9873D01*
X11506Y9848D01*
X2588Y6589D02*
Y6741D01*
X2664D01*
X2690Y6716D01*
Y6665D01*
X2664Y6640D01*
X2588D01*
X2817Y6589D02*
Y6741D01*
X2740Y6665D01*
X2842D01*
X7428Y6144D02*
Y6296D01*
X7505D01*
X7530Y6271D01*
Y6220D01*
X7505Y6195D01*
X7428D01*
X7581Y6144D02*
X7632D01*
X7606D01*
Y6296D01*
X7581Y6271D01*
X9909Y8324D02*
Y8476D01*
X9959Y8425D01*
X10010Y8476D01*
Y8324D01*
X10162Y8476D02*
X10061D01*
Y8400D01*
X10112Y8425D01*
X10137D01*
X10162Y8400D01*
Y8349D01*
X10137Y8324D01*
X10086D01*
X10061Y8349D01*
X4680Y6656D02*
X4629D01*
X4654D01*
Y6529D01*
X4629Y6504D01*
X4603D01*
X4578Y6529D01*
X4730Y6631D02*
X4756Y6656D01*
X4807D01*
X4832Y6631D01*
Y6605D01*
X4807Y6580D01*
X4781D01*
X4807D01*
X4832Y6555D01*
Y6529D01*
X4807Y6504D01*
X4756D01*
X4730Y6529D01*
D12*
X8910Y5822D02*
X9964D01*
X8910D02*
Y6088D01*
X9964D01*
Y5822D02*
Y6088D01*
X9691Y5822D02*
Y6088D01*
X11790Y14218D02*
Y14742D01*
Y14110D02*
Y14168D01*
X11830Y14160D02*
Y14226D01*
X11790Y14168D02*
X11830Y14160D01*
X11790Y14218D02*
X11830Y14226D01*
X11790Y14792D02*
Y14850D01*
Y14742D02*
X11830Y14735D01*
X11790Y14792D02*
X11830Y14799D01*
Y14735D02*
Y14799D01*
X11090Y14110D02*
Y14850D01*
X11790D01*
X11090Y14110D02*
X11790D01*
X9347Y14886D02*
X10643D01*
X9347Y14174D02*
Y14350D01*
Y14710D02*
Y14886D01*
Y14174D02*
X10643D01*
Y14350D01*
Y14710D02*
Y14886D01*
X3187Y12269D02*
Y13069D01*
X2933D02*
X3187D01*
X2933Y12269D02*
Y13069D01*
Y12269D02*
X3187D01*
X3480Y14358D02*
Y14882D01*
Y14250D02*
Y14308D01*
X3520Y14301D02*
Y14365D01*
X3480Y14308D02*
X3520Y14301D01*
X3480Y14358D02*
X3520Y14365D01*
X3480Y14932D02*
Y14990D01*
Y14882D02*
X3520Y14874D01*
X3480Y14932D02*
X3520Y14940D01*
Y14874D02*
Y14940D01*
X2780Y14250D02*
Y14990D01*
X3480D01*
X2780Y14250D02*
X3480D01*
X3182Y13340D02*
Y14140D01*
X2928D02*
X3182D01*
X2928Y13340D02*
Y14140D01*
Y13340D02*
X3182D01*
X4655Y6400D02*
X6155D01*
X4655Y5500D02*
X6155D01*
X4655D02*
Y5715D01*
Y5785D02*
Y6400D01*
X4595Y5690D02*
Y5810D01*
Y5690D02*
X4655Y5715D01*
X4595Y5810D02*
X4655Y5785D01*
X6155Y6235D02*
X6215Y6210D01*
Y6330D01*
X6155Y6305D02*
X6215Y6330D01*
X6155Y6305D02*
Y6400D01*
Y5500D02*
Y6235D01*
X7078Y6309D02*
X7332D01*
Y5509D02*
Y6309D01*
X7078Y5509D02*
X7332D01*
X7078D02*
Y6309D01*
X3169Y5530D02*
X3677D01*
X3169D02*
Y6546D01*
X3677D01*
Y5530D02*
Y6546D01*
X11340Y8760D02*
X11580D01*
X11340D02*
Y9390D01*
X11580Y8760D02*
Y9390D01*
X11340D02*
X11580D01*
X10790Y8780D02*
X11030D01*
X10790D02*
Y9410D01*
X11030Y8780D02*
Y9410D01*
X10790D02*
X11030D01*
X10185Y8760D02*
X10425D01*
X10185D02*
Y9390D01*
X10425Y8760D02*
Y9390D01*
X10185D02*
X10425D01*
D13*
X4905Y6902D02*
X5032D01*
X4842Y6965D02*
X4905Y6902D01*
X4842Y7093D02*
X4905Y7156D01*
X5032Y6902D02*
X5096Y6965D01*
Y7093D01*
X5032Y7156D02*
X5096Y7093D01*
X4905Y7156D02*
X5032D01*
X3127Y6902D02*
X3254D01*
X3064Y6965D02*
X3127Y6902D01*
X3064Y7093D02*
X3127Y7156D01*
X3064Y6965D02*
Y7093D01*
X3318Y6965D02*
X3381Y6902D01*
X3508D01*
X3572Y6965D01*
Y7093D01*
X3508Y7156D02*
X3572Y7093D01*
X3381Y7156D02*
X3508D01*
X3318Y7093D02*
X3381Y7156D01*
X3254Y6902D02*
X3318Y6965D01*
Y7093D01*
X3254Y7156D02*
X3318Y7093D01*
X3127Y7156D02*
X3254D01*
X3889Y6902D02*
X4016D01*
X3826Y6965D02*
X3889Y6902D01*
X3826Y7093D02*
X3889Y7156D01*
X3572Y6965D02*
X3635Y6902D01*
X3762D01*
X3826Y6965D01*
Y7093D01*
X3762Y7156D02*
X3826Y7093D01*
X3635Y7156D02*
X3762D01*
X3572Y7093D02*
X3635Y7156D01*
X4080Y6965D02*
X4143Y6902D01*
X4270D01*
X4334Y6965D01*
Y7093D01*
X4270Y7156D02*
X4334Y7093D01*
X4143Y7156D02*
X4270D01*
X4080Y7093D02*
X4143Y7156D01*
X4016Y6902D02*
X4080Y6965D01*
Y7093D01*
X4016Y7156D02*
X4080Y7093D01*
X3889Y7156D02*
X4016D01*
X4651Y6902D02*
X4778D01*
X4588Y6965D02*
X4651Y6902D01*
X4588Y7093D02*
X4651Y7156D01*
X4334Y6965D02*
X4397Y6902D01*
X4524D01*
X4588Y6965D01*
Y7093D01*
X4524Y7156D02*
X4588Y7093D01*
X4397Y7156D02*
X4524D01*
X4334Y7093D02*
X4397Y7156D01*
X4778Y6902D02*
X4842Y6965D01*
Y7093D01*
X4778Y7156D02*
X4842Y7093D01*
X4651Y7156D02*
X4778D01*
X7598Y6902D02*
X7725D01*
X7534Y6965D02*
X7598Y6902D01*
X7534Y7093D02*
X7598Y7156D01*
X7725Y6902D02*
X7788Y6965D01*
Y7093D01*
X7725Y7156D02*
X7788Y7093D01*
X7598Y7156D02*
X7725D01*
X5312Y6902D02*
X5439D01*
X5248Y6965D02*
X5312Y6902D01*
X5248Y7093D02*
X5312Y7156D01*
X5248Y6965D02*
Y7093D01*
X5502Y6965D02*
X5566Y6902D01*
X5693D01*
X5756Y6965D01*
Y7093D01*
X5693Y7156D02*
X5756Y7093D01*
X5566Y7156D02*
X5693D01*
X5502Y7093D02*
X5566Y7156D01*
X5439Y6902D02*
X5502Y6965D01*
Y7093D01*
X5439Y7156D02*
X5502Y7093D01*
X5312Y7156D02*
X5439D01*
X6074Y6902D02*
X6201D01*
X6010Y6965D02*
X6074Y6902D01*
X6010Y7093D02*
X6074Y7156D01*
X5756Y6965D02*
X5820Y6902D01*
X5947D01*
X6010Y6965D01*
Y7093D01*
X5947Y7156D02*
X6010Y7093D01*
X5820Y7156D02*
X5947D01*
X5756Y7093D02*
X5820Y7156D01*
X6264Y6965D02*
X6328Y6902D01*
X6455D01*
X6518Y6965D01*
Y7093D01*
X6455Y7156D02*
X6518Y7093D01*
X6328Y7156D02*
X6455D01*
X6264Y7093D02*
X6328Y7156D01*
X6201Y6902D02*
X6264Y6965D01*
Y7093D01*
X6201Y7156D02*
X6264Y7093D01*
X6074Y7156D02*
X6201D01*
X6836Y6902D02*
X6963D01*
X6772Y6965D02*
X6836Y6902D01*
X6772Y7093D02*
X6836Y7156D01*
X6518Y6965D02*
X6582Y6902D01*
X6709D01*
X6772Y6965D01*
Y7093D01*
X6709Y7156D02*
X6772Y7093D01*
X6582Y7156D02*
X6709D01*
X6518Y7093D02*
X6582Y7156D01*
X7026Y6965D02*
X7090Y6902D01*
X7217D01*
X7280Y6965D01*
Y7093D01*
X7217Y7156D02*
X7280Y7093D01*
X7090Y7156D02*
X7217D01*
X7026Y7093D02*
X7090Y7156D01*
X6963Y6902D02*
X7026Y6965D01*
Y7093D01*
X6963Y7156D02*
X7026Y7093D01*
X6836Y7156D02*
X6963D01*
X7280Y6965D02*
X7344Y6902D01*
X7471D01*
X7534Y6965D01*
Y7093D01*
X7471Y7156D02*
X7534Y7093D01*
X7344Y7156D02*
X7471D01*
X7280Y7093D02*
X7344Y7156D01*
X3127Y11982D02*
X3254D01*
X3318Y11918D01*
X3254Y11728D02*
X3318Y11792D01*
X3064Y11918D02*
X3127Y11982D01*
X3064Y11792D02*
Y11918D01*
Y11792D02*
X3127Y11728D01*
X3254D01*
X4397Y11982D02*
X4524D01*
X4588Y11918D01*
X4524Y11728D02*
X4588Y11792D01*
Y11918D01*
X4270Y11982D02*
X4334Y11918D01*
X4143Y11982D02*
X4270D01*
X4080Y11918D02*
X4143Y11982D01*
X4080Y11792D02*
Y11918D01*
Y11792D02*
X4143Y11728D01*
X4270D01*
X4334Y11792D01*
Y11918D02*
X4397Y11982D01*
X4334Y11792D02*
Y11918D01*
Y11792D02*
X4397Y11728D01*
X4524D01*
X3635Y11982D02*
X3762D01*
X3826Y11918D01*
X3762Y11728D02*
X3826Y11792D01*
X4016Y11982D02*
X4080Y11918D01*
X3889Y11982D02*
X4016D01*
X3826Y11918D02*
X3889Y11982D01*
X3826Y11792D02*
Y11918D01*
Y11792D02*
X3889Y11728D01*
X4016D01*
X4080Y11792D01*
X3508Y11982D02*
X3572Y11918D01*
X3381Y11982D02*
X3508D01*
X3318Y11918D02*
X3381Y11982D01*
X3318Y11792D02*
Y11918D01*
Y11792D02*
X3381Y11728D01*
X3508D01*
X3572Y11792D01*
Y11918D02*
X3635Y11982D01*
X3572Y11792D02*
Y11918D01*
Y11792D02*
X3635Y11728D01*
X3762D01*
X4905Y11982D02*
X5032D01*
X5096Y11918D01*
X5032Y11728D02*
X5096Y11792D01*
X4842Y11918D02*
X4905Y11982D01*
X4842Y11792D02*
Y11918D01*
Y11792D02*
X4905Y11728D01*
X5032D01*
X6683Y11982D02*
X6810D01*
X6874Y11918D01*
X6810Y11728D02*
X6874Y11792D01*
Y11918D01*
X6556Y11982D02*
X6620Y11918D01*
X6429Y11982D02*
X6556D01*
X6366Y11918D02*
X6429Y11982D01*
X6366Y11792D02*
Y11918D01*
Y11792D02*
X6429Y11728D01*
X6556D01*
X6620Y11792D01*
Y11918D02*
X6683Y11982D01*
X6620Y11792D02*
Y11918D01*
Y11792D02*
X6683Y11728D01*
X6810D01*
X5921Y11982D02*
X6048D01*
X6112Y11918D01*
X6048Y11728D02*
X6112Y11792D01*
X6302Y11982D02*
X6366Y11918D01*
X6175Y11982D02*
X6302D01*
X6112Y11918D02*
X6175Y11982D01*
X6112Y11792D02*
Y11918D01*
Y11792D02*
X6175Y11728D01*
X6302D01*
X6366Y11792D01*
X5794Y11982D02*
X5858Y11918D01*
X5667Y11982D02*
X5794D01*
X5604Y11918D02*
X5667Y11982D01*
X5604Y11792D02*
Y11918D01*
Y11792D02*
X5667Y11728D01*
X5794D01*
X5858Y11792D01*
Y11918D02*
X5921Y11982D01*
X5858Y11792D02*
Y11918D01*
Y11792D02*
X5921Y11728D01*
X6048D01*
X5159Y11982D02*
X5286D01*
X5350Y11918D01*
X5286Y11728D02*
X5350Y11792D01*
X5540Y11982D02*
X5604Y11918D01*
X5413Y11982D02*
X5540D01*
X5350Y11918D02*
X5413Y11982D01*
X5350Y11792D02*
Y11918D01*
Y11792D02*
X5413Y11728D01*
X5540D01*
X5604Y11792D01*
X5096Y11918D02*
X5159Y11982D01*
X5096Y11792D02*
Y11918D01*
Y11792D02*
X5159Y11728D01*
X5286D01*
D14*
X3356Y7499D02*
X3534D01*
X3356D02*
X3445Y7410D01*
X3534Y7499D01*
X3089Y7410D02*
X3267D01*
X3178Y7499D02*
X3267Y7410D01*
X3089D02*
X3178Y7499D01*
X3445Y7435D02*
X3496Y7486D01*
X3394D02*
X3445Y7435D01*
X3394Y7486D02*
X3470D01*
X3432Y7461D02*
X3470Y7486D01*
X3127Y7423D02*
X3229D01*
X3127D02*
X3178Y7474D01*
X3216Y7435D01*
X3166D02*
X3216D01*
X3178Y7448D02*
Y7461D01*
D15*
X5765Y11556D02*
X5845D01*
Y11617D01*
X5805Y11597D01*
X5785D01*
X5765Y11617D01*
Y11657D01*
X5785Y11677D01*
X5825D01*
X5845Y11657D01*
X5724Y11556D02*
Y11637D01*
X5684Y11677D01*
X5644Y11637D01*
Y11556D01*
X5109D02*
Y11637D01*
X5068Y11677D01*
X5028Y11637D01*
Y11556D01*
X4988D02*
X4948D01*
X4968D01*
Y11677D01*
X4988D01*
X4948D01*
X4887D02*
Y11556D01*
X4807Y11677D01*
Y11556D01*
X5457Y11576D02*
X5478Y11556D01*
X5518D01*
X5538Y11576D01*
Y11657D01*
X5518Y11677D01*
X5478D01*
X5457Y11657D01*
Y11617D01*
X5498D01*
X5417Y11677D02*
Y11556D01*
X5337Y11677D01*
Y11556D01*
X5296D02*
Y11677D01*
X5236D01*
X5216Y11657D01*
Y11576D01*
X5236Y11556D01*
X5296D01*
X6601Y7388D02*
Y7348D01*
Y7368D01*
X6722D01*
X6701Y7388D01*
Y7287D02*
X6722Y7267D01*
Y7227D01*
X6701Y7207D01*
X6681D01*
X6661Y7227D01*
Y7247D01*
Y7227D01*
X6641Y7207D01*
X6621D01*
X6601Y7227D01*
Y7267D01*
X6621Y7287D01*
X6347Y7388D02*
Y7348D01*
Y7368D01*
X6468D01*
X6447Y7388D01*
X6347Y7207D02*
Y7287D01*
X6427Y7207D01*
X6447D01*
X6468Y7227D01*
Y7267D01*
X6447Y7287D01*
X6093Y7348D02*
Y7308D01*
Y7328D01*
X6214D01*
X6193Y7348D01*
X6093Y7247D02*
Y7207D01*
Y7227D01*
X6214D01*
X6193Y7247D01*
X5839Y7388D02*
Y7348D01*
Y7368D01*
X5960D01*
X5939Y7388D01*
Y7287D02*
X5960Y7267D01*
Y7227D01*
X5939Y7207D01*
X5859D01*
X5839Y7227D01*
Y7267D01*
X5859Y7287D01*
X5939D01*
X5605D02*
X5585Y7267D01*
Y7227D01*
X5605Y7207D01*
X5685D01*
X5706Y7227D01*
Y7267D01*
X5685Y7287D01*
X5665D01*
X5645Y7267D01*
Y7207D01*
X5431Y7287D02*
X5452Y7267D01*
Y7227D01*
X5431Y7207D01*
X5411D01*
X5391Y7227D01*
X5371Y7207D01*
X5351D01*
X5331Y7227D01*
Y7267D01*
X5351Y7287D01*
X5371D01*
X5391Y7267D01*
X5411Y7287D01*
X5431D01*
X5391Y7267D02*
Y7227D01*
X5045Y7287D02*
Y7207D01*
X5025D01*
X4944Y7287D01*
X4924D01*
X4791Y7207D02*
X4771Y7247D01*
X4731Y7287D01*
X4690D01*
X4670Y7267D01*
Y7227D01*
X4690Y7207D01*
X4711D01*
X4731Y7227D01*
Y7287D01*
X4537Y7207D02*
Y7287D01*
X4477D01*
X4497Y7247D01*
Y7227D01*
X4477Y7207D01*
X4436D01*
X4416Y7227D01*
Y7267D01*
X4436Y7287D01*
X4162Y7227D02*
X4283D01*
X4223Y7287D01*
Y7207D01*
X4009Y7287D02*
X4029Y7267D01*
Y7227D01*
X4009Y7207D01*
X3989D01*
X3969Y7227D01*
Y7247D01*
Y7227D01*
X3949Y7207D01*
X3928D01*
X3908Y7227D01*
Y7267D01*
X3928Y7287D01*
X3654Y7207D02*
Y7287D01*
X3735Y7207D01*
X3755D01*
X3775Y7227D01*
Y7267D01*
X3755Y7287D01*
X3400Y7247D02*
Y7207D01*
Y7227D01*
X3521D01*
X3501Y7247D01*
X3247Y7287D02*
X3267Y7267D01*
Y7227D01*
X3247Y7207D01*
X3166D01*
X3146Y7227D01*
Y7267D01*
X3166Y7287D01*
X3247D01*
D16*
X4540Y11675D02*
Y11617D01*
X4511Y11588D01*
X4482Y11617D01*
Y11675D01*
Y11631D01*
X4540D01*
X4453Y11603D02*
X4439Y11588D01*
X4410D01*
X4396Y11603D01*
Y11660D01*
X4410Y11675D01*
X4439D01*
X4453Y11660D01*
Y11603D01*
X4286Y11675D02*
Y11617D01*
X4257Y11588D01*
X4228Y11617D01*
Y11675D01*
Y11631D01*
X4286D01*
X4199Y11675D02*
X4171D01*
X4185D01*
Y11588D01*
X4199Y11603D01*
X4032Y11675D02*
Y11617D01*
X4003Y11588D01*
X3974Y11617D01*
Y11675D01*
Y11631D01*
X4032D01*
X3888Y11675D02*
X3945D01*
X3888Y11617D01*
Y11603D01*
X3902Y11588D01*
X3931D01*
X3945Y11603D01*
X3778Y11675D02*
Y11617D01*
X3749Y11588D01*
X3720Y11617D01*
Y11675D01*
Y11631D01*
X3778D01*
X3691Y11603D02*
X3677Y11588D01*
X3648D01*
X3634Y11603D01*
Y11617D01*
X3648Y11631D01*
X3663D01*
X3648D01*
X3634Y11646D01*
Y11660D01*
X3648Y11675D01*
X3677D01*
X3691Y11660D01*
X3524Y11675D02*
Y11617D01*
X3495Y11588D01*
X3466Y11617D01*
Y11675D01*
Y11631D01*
X3524D01*
X3394Y11675D02*
Y11588D01*
X3437Y11631D01*
X3380D01*
X3270Y11675D02*
Y11617D01*
X3241Y11588D01*
X3212Y11617D01*
Y11675D01*
Y11631D01*
X3270D01*
X3126Y11588D02*
X3183D01*
Y11631D01*
X3155Y11617D01*
X3140D01*
X3126Y11631D01*
Y11660D01*
X3140Y11675D01*
X3169D01*
X3183Y11660D01*
D17*
X7116Y7635D02*
X7197D01*
X7237Y7594D01*
X7197Y7554D01*
X7116D01*
X7177D01*
Y7635D01*
X7116Y7514D02*
X7237D01*
Y7453D01*
X7217Y7433D01*
X7177D01*
X7157Y7453D01*
Y7514D01*
Y7474D02*
X7116Y7433D01*
X7237Y7312D02*
Y7393D01*
X7116D01*
Y7312D01*
X7177Y7393D02*
Y7353D01*
X7237Y7192D02*
Y7272D01*
X7177D01*
Y7232D01*
Y7272D01*
X7116D01*
X6953Y7436D02*
X6973Y7456D01*
Y7496D01*
X6953Y7516D01*
X6872D01*
X6852Y7496D01*
Y7456D01*
X6872Y7436D01*
X6913D01*
Y7476D01*
X6852Y7396D02*
X6973D01*
X6852Y7315D01*
X6973D01*
Y7275D02*
X6852D01*
Y7214D01*
X6872Y7194D01*
X6953D01*
X6973Y7214D01*
Y7275D01*
X6214Y11664D02*
X6334D01*
Y11604D01*
X6314Y11584D01*
X6274D01*
X6254Y11604D01*
Y11664D01*
Y11624D02*
X6214Y11584D01*
X6334Y11463D02*
Y11544D01*
X6214D01*
Y11463D01*
X6274Y11544D02*
Y11503D01*
X6314Y11342D02*
X6334Y11362D01*
Y11403D01*
X6314Y11423D01*
X6294D01*
X6274Y11403D01*
Y11362D01*
X6254Y11342D01*
X6234D01*
X6214Y11362D01*
Y11403D01*
X6234Y11423D01*
X6334Y11221D02*
Y11302D01*
X6214D01*
Y11221D01*
X6274Y11302D02*
Y11262D01*
X6334Y11181D02*
Y11100D01*
Y11141D01*
X6214D01*
X6035Y11677D02*
X6055Y11657D01*
Y11617D01*
X6035Y11597D01*
X6015D01*
X5995Y11617D01*
Y11637D01*
Y11617D01*
X5974Y11597D01*
X5954D01*
X5934Y11617D01*
Y11657D01*
X5954Y11677D01*
X6055Y11556D02*
X5974D01*
X5934Y11516D01*
X5974Y11476D01*
X6055D01*
X6035Y11435D02*
X6055Y11415D01*
Y11375D01*
X6035Y11355D01*
X6015D01*
X5995Y11375D01*
Y11395D01*
Y11375D01*
X5974Y11355D01*
X5954D01*
X5934Y11375D01*
Y11415D01*
X5954Y11435D01*
X6550Y11664D02*
Y11624D01*
Y11644D01*
X6429D01*
Y11664D01*
Y11624D01*
X6550Y11503D02*
Y11544D01*
X6530Y11564D01*
X6450D01*
X6429Y11544D01*
Y11503D01*
X6450Y11483D01*
X6530D01*
X6550Y11503D01*
X6429Y11443D02*
X6550D01*
Y11382D01*
X6530Y11362D01*
X6490D01*
X6470Y11382D01*
Y11443D01*
Y11403D02*
X6429Y11362D01*
X6550Y11241D02*
Y11322D01*
X6429D01*
Y11241D01*
X6490Y11322D02*
Y11282D01*
X6550Y11121D02*
Y11201D01*
X6490D01*
Y11161D01*
Y11201D01*
X6429D01*
X3490Y7763D02*
Y7682D01*
Y7723D01*
X3369D01*
X3490Y7642D02*
X3369Y7562D01*
X3490D02*
X3369Y7642D01*
X3115Y7766D02*
X3236D01*
Y7705D01*
X3216Y7685D01*
X3175D01*
X3155Y7705D01*
Y7766D01*
Y7725D02*
X3115Y7685D01*
X3236Y7645D02*
X3115Y7564D01*
X3236D02*
X3115Y7645D01*
X7716Y7464D02*
X7736Y7485D01*
Y7525D01*
X7716Y7545D01*
X7696D01*
X7675Y7525D01*
Y7485D01*
X7655Y7464D01*
X7635D01*
X7615Y7485D01*
Y7525D01*
X7635Y7545D01*
X7716Y7344D02*
X7736Y7364D01*
Y7404D01*
X7716Y7424D01*
X7635D01*
X7615Y7404D01*
Y7364D01*
X7635Y7344D01*
X7736Y7303D02*
X7615D01*
Y7223D01*
X7463Y7466D02*
X7483Y7486D01*
Y7526D01*
X7463Y7546D01*
X7443D01*
X7423Y7526D01*
Y7486D01*
X7402Y7466D01*
X7382D01*
X7362Y7486D01*
Y7526D01*
X7382Y7546D01*
X7483Y7425D02*
X7362D01*
Y7365D01*
X7382Y7345D01*
X7463D01*
X7483Y7365D01*
Y7425D01*
X7362Y7305D02*
X7443D01*
X7483Y7264D01*
X7443Y7224D01*
X7362D01*
X7423D01*
Y7305D01*
M02*
