G04*
G04 #@! TF.GenerationSoftware,Altium Limited,Altium Designer,23.0.1 (38)*
G04*
G04 Layer_Color=32768*
%FSLAX42Y42*%
%MOMM*%
G71*
G04*
G04 #@! TF.SameCoordinates,5E3E34A1-7FEC-4214-86D8-9FB3ECCAC709*
G04*
G04*
G04 #@! TF.FilePolarity,Positive*
G04*
G01*
G75*
%ADD12C,0.20*%
%ADD47C,0.10*%
%ADD48C,0.05*%
D12*
X8900Y5812D02*
X9974D01*
X8900D02*
Y6099D01*
X9974D01*
Y5812D02*
Y6099D01*
X9337Y14896D02*
X10653D01*
X9337Y14164D02*
Y14896D01*
Y14164D02*
X10653D01*
Y14896D01*
D47*
X3373Y6038D02*
X3473D01*
X3423Y5988D02*
Y6088D01*
X11410Y9075D02*
X11510D01*
X11460Y9025D02*
Y9125D01*
X10860Y9095D02*
X10960D01*
X10910Y9045D02*
Y9145D01*
X10255Y9075D02*
X10355D01*
X10305Y9025D02*
Y9125D01*
D48*
X11070Y14090D02*
X11850D01*
X11070D02*
Y14870D01*
X11850D01*
Y14090D02*
Y14870D01*
X3210Y12246D02*
Y13091D01*
X2910D02*
X3210D01*
X2910Y12246D02*
Y13091D01*
Y12246D02*
X3210D01*
X2760Y14230D02*
X3540D01*
X2760D02*
Y15010D01*
X3540D01*
Y14230D02*
Y15010D01*
X3204Y13318D02*
Y14162D01*
X2906D02*
X3204D01*
X2906Y13318D02*
Y14162D01*
Y13318D02*
X3204D01*
X4575Y6420D02*
X6235D01*
Y5480D02*
Y6420D01*
X4575Y5480D02*
X6235D01*
X4575D02*
Y6420D01*
X7056Y6331D02*
X7354D01*
Y5487D02*
Y6331D01*
X7056Y5487D02*
X7354D01*
X7056D02*
Y6331D01*
X3159Y5520D02*
X3687D01*
X3159D02*
Y6556D01*
X3687Y5520D02*
Y6556D01*
X3159D02*
X3687D01*
X11330Y8547D02*
X11590D01*
Y9603D01*
X11330Y8547D02*
Y9603D01*
X11590D01*
X10780Y8568D02*
X11040D01*
Y9622D01*
X10780Y8568D02*
Y9622D01*
X11040D01*
X10175Y8547D02*
X10435D01*
Y9603D01*
X10175Y8547D02*
Y9603D01*
X10435D01*
M02*
